<svg xmlns="http://www.w3.org/2000/svg" viewBox="0 0 640 480">
  <rect width="640" height="480" rx="48" fill="#FFF4D8"/>
  <circle cx="134" cy="104" r="58" fill="#F7B267" opacity=".26"/>
  <path d="M144 354c12-105 84-176 176-176s164 71 176 176c4 36-24 66-60 66H204c-36 0-64-30-60-66Z" fill="#F2C76E"/>
  <path d="m214 210 32-100 74 78M426 210l-32-100-74 78" fill="#E8AD52"/>
  <path d="M270 230c28-18 72-18 100 0" stroke="#FFE3A1" stroke-width="18" stroke-linecap="round"/>
  <circle cx="270" cy="270" r="13" fill="#3A2B1D"/>
  <circle cx="370" cy="270" r="13" fill="#3A2B1D"/>
  <path d="M320 287v27" stroke="#704A24" stroke-width="12" stroke-linecap="round"/>
  <path d="M291 320c16 16 42 16 58 0" fill="none" stroke="#704A24" stroke-width="10" stroke-linecap="round"/>
</svg>
