<svg xmlns="http://www.w3.org/2000/svg" viewBox="0 0 780 920">
  <rect width="780" height="920" rx="56" fill="#FFF6DE"/>
  <circle cx="170" cy="178" r="112" fill="#F7B267" opacity=".2"/>
  <circle cx="620" cy="740" r="146" fill="#4A90F5" opacity=".08"/>
  <path d="M132 684c22-216 124-358 258-358s236 142 258 358c8 74-52 132-126 132H258c-74 0-134-58-126-132Z" fill="#F2C76E"/>
  <path d="m238 374 50-164 102 126M542 374l-50-164-102 126" fill="#E8AD52"/>
  <path d="M305 448c48-28 122-28 170 0" stroke="#FFE3A1" stroke-width="30" stroke-linecap="round"/>
  <circle cx="315" cy="512" r="18" fill="#3A2B1D"/>
  <circle cx="465" cy="512" r="18" fill="#3A2B1D"/>
  <path d="M390 536v40" stroke="#704A24" stroke-width="14" stroke-linecap="round"/>
  <path d="M350 580c22 18 58 18 80 0" fill="none" stroke="#704A24" stroke-width="12" stroke-linecap="round"/>
</svg>
