<svg width="75" height="62" viewBox="0 0 75 62" fill="none" xmlns="http://www.w3.org/2000/svg">
<path d="M6.47283 31.0191C6.46809 29.7484 6.69165 28.3147 7.04935 27.0945C7.88801 24.2337 9.0779 19.0875 12.1007 17.9346C15.3286 16.7035 19.9529 22.9391 20.7493 25.4542C24.7736 25.2881 26.9794 25.506 30.8894 26.3791C32.3769 24.2507 38.1007 18.1597 41.2401 20.5884C43.6874 22.4817 43.9386 28.3396 44.2305 31.1947C44.2683 31.5636 44.3356 32.9187 44.4243 33.3947C44.8385 33.8101 45.4888 34.6684 45.9044 35.1341C46.9429 36.2981 48.6288 39.7949 48.8592 41.264C48.9968 41.9161 49.1969 42.8265 49.1983 43.4801C49.2043 44.0045 49.2276 44.4089 49.2747 44.9313C48.7373 59.0821 32.8374 62.5258 21.3741 61.243C14.6768 60.4936 7.33299 58.2941 3.05355 52.7322C-2.31622 45.7531 -0.246698 36.2847 6.47283 31.0191Z" fill="#1E1E1E"/>
<path d="M12.9379 21.5215C14.7384 22.5758 15.5823 23.8211 16.7922 25.4598C17.6627 26.639 17.9104 27.326 18.415 28.672C18.5328 28.9863 19.1012 29.1986 19.4532 29.2039C20.6688 29.2222 21.9108 28.9627 23.1407 29.0659C25.8497 29.1122 28.5089 29.4808 31.1408 30.1123C32.4814 30.434 33.2201 29.7435 33.4548 28.4879C33.9705 28.0217 34.5867 27.2397 35.1048 26.7212C36.4146 25.4103 37.6943 24.4003 39.398 23.6827C40.1808 26.0959 40.6264 29.6291 40.9137 32.1881C40.9833 32.8088 40.5331 33.955 40.7786 34.5173C41.1232 35.3067 42.2054 36.2625 42.757 36.9735C43.7618 38.2687 44.8509 40.2636 45.2457 41.8201C45.307 42.1092 45.3759 42.4103 45.4209 42.7011C45.6538 43.8167 45.6171 45.047 45.4953 46.1779C45.5247 47.3795 44.7107 49.2393 44.0738 50.2644C39.3642 57.8448 27.7902 58.149 19.9287 56.9918C16.3771 56.5802 13.3772 55.7766 10.2299 54.0332C2.18065 49.5925 1.56751 40.1791 8.24613 34.1168C9.75575 32.723 10.1155 32.9528 10.0961 30.865C10.0713 28.196 11.6522 23.7272 12.9379 21.5215Z" fill="#FEFEFE"/>
<path d="M23.5406 42.757C24.3462 42.723 25.5669 42.7056 26.228 43.1987C27.27 43.976 26.2075 45.2031 25.7042 45.8869C25.5631 46.5838 26.8542 47.4562 26.3869 48.145C25.7689 49.0558 25.1303 48.696 24.4592 48.2404C24.4335 48.2015 24.1454 47.7966 24.1119 47.8354C23.6561 48.3622 22.6918 49.0424 22.0264 48.3734C21.5389 47.4533 22.5869 46.4324 23.1788 45.8561C22.4668 45.4072 21.7596 44.4798 22.2123 43.6012C22.499 43.0447 22.9876 42.9335 23.5406 42.757Z" fill="#1E1E1E"/>
<path d="M31.3487 38.8457C33.4996 38.5472 34.1599 41.1704 33.234 42.6901C32.9017 43.2353 32.5371 43.2905 31.96 43.4128C29.8242 43.4664 29.2451 41.6626 29.9706 39.8509C30.2229 39.221 30.7502 39.0365 31.3487 38.8457Z" fill="#1E1E1E"/>
<path d="M16.8546 38.0342C17.1274 38.0002 17.3685 37.9711 17.6357 38.0524C18.2353 38.2385 18.7371 38.6538 19.0323 39.2079C19.344 39.7686 19.4118 40.4327 19.2197 41.0448C18.9999 41.7632 18.524 42.299 17.869 42.651C14.9659 43.1035 14.5725 39.3065 16.8546 38.0342Z" fill="#1E1E1E"/>
<path d="M10.7547 43.5068C11.7587 43.4372 13.9869 43.9027 14.6296 44.7646C15.0424 45.3182 14.4425 46.0472 13.9616 46.3227C13.1017 46.1983 12.2156 45.9108 11.4194 45.7222C10.3323 45.4648 9.41543 45.0365 10.2605 43.838C10.3636 43.6917 10.6015 43.5811 10.7547 43.5068Z" fill="#1E1E1E"/>
<path d="M36.5563 44.739C37.1929 44.7042 37.8251 44.6079 38.2488 45.1905C38.7153 45.832 38.1855 46.4326 37.6976 46.7919C36.83 46.8435 36.1326 46.9425 35.2259 46.9606C35.0658 46.9905 34.905 47.0176 34.7438 47.0417C33.8124 47.1784 33.035 46.4276 33.7137 45.5968C34.3077 44.8698 35.6833 44.8192 36.5563 44.739Z" fill="#1E1E1E"/>
<path d="M33.9378 48.091C34.2045 48.0725 34.4723 48.0906 34.7341 48.1447C35.4274 48.288 36.0723 48.55 36.7405 48.7565C37.8571 49.1017 38.8035 50.1315 37.4146 50.9584C37.3303 50.9624 37.2458 50.964 37.1613 50.9632C36.6115 50.9567 36.1295 50.7203 35.6098 50.5887C34.4369 50.2916 32.1396 49.5832 33.9378 48.091Z" fill="#1E1E1E"/>
<path d="M13.6472 46.904C13.8118 46.8817 14.1665 46.8821 14.2962 46.9988C16.2672 48.7708 12.2551 49.2574 11.1552 49.5279C10.6795 49.5851 10.1052 49.3032 10.0715 48.7695C10.0345 48.1812 10.2546 47.9663 10.6152 47.5552C11.4408 47.4278 12.7784 47.0883 13.6472 46.904Z" fill="#1E1E1E"/>
<path d="M54.4987 1.5C54.0956 0.81579 53.653 0.00127391 52.4987 0C51.4701 -0.001135 50.6872 0.702768 50.4814 1.94666C49.8756 5.6086 47.8649 9.26249 44.5605 11.1285C44.0421 11.4221 43.4988 11.8624 42.9166 12.0702C40.8937 12.7868 39.9624 13.0389 40.0012 14.5274C40.0412 16.0646 41.289 15.8872 43.2367 16.771C46.4082 18.2104 48.6252 20.8965 49.7745 24.1498C50.2134 25.3617 50.2758 26.5744 50.6908 27.7558C50.8332 28.1614 51.9044 28.5299 52.3191 28.653L53.1549 28.4174C54.6964 27.6382 54.1475 27.0529 54.5498 25.6231C54.716 25.0341 55.0664 24.3599 55.286 23.7812C56.4846 20.7221 58.393 18.7349 61.3144 17.2621C62.7025 16.5623 63.9417 16.493 65.0493 15.744C66.2284 12.6272 64.1395 12.8907 62.0618 11.96C59.3104 10.7531 58.1107 9.50124 56.4987 6.5C55.5573 4.74741 55.1302 2.57218 54.4987 1.5Z" fill="#1E1E1E"/>
<path d="M52.4254 7.44336C52.5625 7.50607 53.5925 9.34415 53.7715 9.64929C54.7595 11.334 57.141 13.6977 58.9494 14.484C56.6996 15.4619 54.4918 17.5349 53.3421 19.7019C53.1173 20.1256 52.7939 20.571 52.519 20.9626L52.463 21.0595C52.6504 21.1436 49.7712 15.8935 46.1914 14.3669C46.3946 14.2799 46.5947 14.1859 46.7914 14.085C49.1803 12.8495 51.6048 10.0279 52.4254 7.44336Z" fill="#FEFEFE"/>
<path d="M62.8208 44.6625C65.4188 44.4493 67.6927 46.3946 67.8844 48.9945C68.0762 51.5943 66.1128 53.8522 63.5118 54.0229C60.9401 54.1917 58.7136 52.2553 58.5241 49.6853C58.3339 47.1152 60.2521 44.8731 62.8208 44.6625Z" fill="#1E1E1E"/>
<path d="M63.0674 47.802C63.3547 47.7083 64.0766 48.1488 64.3555 48.292C64.5886 48.652 64.6488 48.8487 64.7924 49.2441C64.7157 49.5807 64.633 50.0129 64.4112 50.2714L64.3841 50.3019C64.1533 50.5712 63.7292 50.7193 63.396 50.8646C62.338 50.8377 61.2184 50.2323 61.6462 48.9963C61.8899 48.2943 62.4456 48.084 63.0674 47.802Z" fill="#FEFEFE"/>
<path d="M69.9064 2.74871C71.772 2.70901 71.3877 4.45068 71.3945 5.81247C72.3141 5.83556 75.6566 5.56756 74.2211 8.03795C73.976 8.45935 71.9743 8.41363 71.3907 8.44235C71.3426 9.85678 71.8351 10.8425 70.3448 11.4929C68.5619 11.6994 68.8394 9.58141 68.8349 8.44243C68.0039 8.38821 66.3481 8.58906 65.8902 7.76492C65.3601 6.80994 65.9692 6.38538 66.7068 5.92978C67.4129 5.92466 68.113 5.86782 68.8161 5.8142C68.9582 4.56671 68.4589 3.22914 69.9064 2.74871Z" fill="#1E1E1E"/>
<path d="M30.3729 12.0004C31.4229 11.9777 31.2066 12.9719 31.2104 13.7493C31.728 13.7625 33.609 13.6095 32.8012 15.0197C32.6632 15.2603 31.5367 15.2342 31.2083 15.2506C31.1812 16.058 31.4584 16.6207 30.6196 16.992C29.6163 17.1098 29.7724 15.9008 29.7699 15.2506C29.3023 15.2197 28.3704 15.3343 28.1127 14.8639C27.8144 14.3187 28.1571 14.0764 28.5723 13.8163C28.9697 13.8134 29.3636 13.7809 29.7593 13.7503C29.8393 13.0382 29.5583 12.2746 30.3729 12.0004Z" fill="#1E1E1E"/>
</svg>
