<svg width="53" height="62" viewBox="0 0 53 62" fill="none" xmlns="http://www.w3.org/2000/svg">
<path d="M12.3995 8.75057C12.1308 7.13507 12.6859 1.33669 14.2539 0.33441C16.1858 -0.900568 19.1476 1.59318 20.5066 2.816C20.7377 3.02392 21.0895 3.60082 21.4134 3.73256C22.3096 3.79482 23.1537 3.46637 24.1259 3.45065C26.1548 3.41802 27.7632 3.49261 29.7699 3.87423C30.8411 2.30438 34.5868 -0.200425 36.5889 0.230978C36.9312 0.356291 37.139 0.434119 37.4605 0.601729C37.7593 1.06027 37.8521 1.24826 38.0684 1.75199C38.5757 3.78512 38.8716 7.23185 38.5044 9.29686C39.0731 10.2088 39.4201 10.7666 39.8054 11.7608C39.9786 11.8934 40.0292 12.0501 40.1251 12.2498C41.7709 11.1899 42.3121 12.8397 41.7482 13.3615C41.4352 13.6512 40.6728 13.5515 40.6728 13.5515C40.7326 13.9954 40.7879 14.4401 40.8385 14.8852C41.6622 14.8887 41.9412 14.7522 42.2728 15.5896C45.0233 16.3687 46.5646 17.9495 46.1951 20.9703C52.7497 21.4196 52.2504 26.7253 52.2061 31.7955L52.1467 37.5761C52.1098 42.3296 52.1068 47.0504 51.8293 51.8024C51.7075 53.8839 51.603 55.749 50.4405 57.5979C48.1345 61.2669 42.9371 60.6377 39.2132 60.9265C32.3364 61.253 25.3771 61.1682 18.495 60.9862C14.9864 60.8934 11.4889 60.8736 7.99785 60.535C6.47635 60.3805 4.36088 59.9218 3.08474 59.1183C1.81273 58.3343 0.906931 57.0744 0.568853 55.619C0.144826 53.7089 0.162272 52.0822 0.0882044 50.1779C-0.0290251 47.1638 0.0125576 44.1794 0 41.1632L0.0138352 33.7866C0.0171438 31.3974 -0.00797078 29.1035 0.251829 26.7223C0.635175 23.2077 2.22728 21.6866 5.5628 20.9642C5.11336 18.353 6.35581 17.0033 8.5485 15.9222C8.12538 15.8464 7.89829 15.8843 7.72113 15.4802C7.73474 15.1877 7.84031 14.817 8.12831 14.5384C8.64975 14.0339 9.35415 14.5251 9.98609 14.5373C10.0018 14.0561 10.0238 13.7062 10.0813 13.2284C10.0813 13.2284 9.34959 13.2436 9.03532 12.9628C8.54817 12.5276 8.095 11.8693 8.96366 11.2916C9.31422 11.0585 10.244 11.8179 10.7191 12.011L10.7761 12.0335C10.8369 11.7497 10.839 11.669 11.034 11.4513C10.8653 10.8502 12.0301 9.44756 12.3995 8.75057Z" fill="#1E1E1E"/>
<path d="M12.3995 8.75057C12.1308 7.13507 12.6859 1.33669 14.2539 0.33441C16.1858 -0.900568 19.1476 1.59318 20.5066 2.816C20.7377 3.02392 21.0895 3.60082 21.4134 3.73256C22.3097 3.79482 23.1537 3.46637 24.1259 3.45065C26.1548 3.41802 27.7632 3.49261 29.7699 3.87423C30.8411 2.30438 34.5869 -0.200425 36.5889 0.230978C36.9312 0.356291 37.139 0.434119 37.4605 0.601729C37.7593 1.06027 37.8522 1.24826 38.0684 1.75199C38.5758 3.78512 38.8716 7.23185 38.5044 9.29686C39.0732 10.2088 39.4201 10.7666 39.8054 11.7608C39.9787 11.8934 40.0293 12.0501 40.1252 12.2498C39.5028 12.723 38.158 13.2135 38.2485 13.9668C38.5532 14.472 39.0175 14.5279 39.5957 14.7168C38.6611 15.275 38.8495 15.9004 38.74 15.9504C36.7852 16.8427 34.8761 18.0212 34.9997 20.8492C30.2881 20.8163 25.554 20.9718 20.8385 20.9018C19.3402 20.8795 17.7758 20.8496 16.2807 20.9C16.3063 20.31 16.1933 19.7061 16.1892 19.1171C16.2225 19.0282 16.15 18.9923 16.2645 19.0038C16.9458 19.0724 18.4418 18.8786 18.5771 18.0651C18.3363 17.167 16.6644 17.274 16.2164 17.9427C15.9699 18.3106 16.0412 18.4429 16.0863 18.8643C15.3677 17.0875 13.8936 16.1752 12.3062 15.7212C12.2893 15.7163 11.6353 14.856 11.5567 14.7345C11.6232 14.3992 12.1675 14.1555 12.3569 13.8704C12.9778 12.9356 11.3545 12.4257 10.7761 12.0335C10.837 11.7497 10.839 11.669 11.034 11.4513C10.8653 10.8502 12.0302 9.44756 12.3995 8.75057Z" fill="#FEFEFE"/>
<path d="M12.3995 8.75057C12.1309 7.13507 12.686 1.33669 14.2539 0.33441C16.1859 -0.900568 19.1476 1.59318 20.5067 2.816C20.7377 3.02392 21.0896 3.60082 21.4134 3.73256C22.3097 3.79482 23.1538 3.46637 24.126 3.45065C26.1549 3.41802 27.7632 3.49261 29.77 3.87423C30.8411 2.30438 34.5869 -0.200425 36.589 0.230978C36.8639 0.289063 37.1747 0.366971 37.4606 0.601729C37.8532 0.924187 37.8522 1.24826 38.0684 1.75199C37.6971 2.44747 37.3857 2.98256 36.6227 3.27537C36.4329 3.26304 36.3939 3.24966 36.2134 3.18762C36.1886 2.96203 36.1795 2.70065 36.0736 2.5047C35.7973 2.42364 35.8369 2.46319 35.518 2.54139C34.4474 2.88067 32.7758 3.98732 31.9336 4.78018C31.6677 5.03043 30.8477 6.06565 30.628 6.14039C29.6865 6.37101 28.4973 5.90405 27.5448 5.86292C26.0248 5.79742 24.5381 5.77118 23.0285 5.87894C21.448 5.99165 20.3446 7.00882 19.6625 5.00261C18.9568 4.63415 18.2567 3.90942 17.5998 3.42561C16.9487 2.94609 16.2997 2.57139 15.5953 2.17827C14.5743 4.39165 14.4537 6.86091 14.5872 9.18392C14.6007 9.41973 13.5497 13.1769 12.6492 12.1335C12.5157 11.9787 12.4726 11.8394 12.3673 11.6926C12.1773 11.428 11.4597 11.7657 11.0341 11.4513C10.0835 10.7491 12.0302 9.44756 12.3995 8.75057Z" fill="#1E1E1E"/>
<path d="M38.0684 1.75195C38.5757 3.78508 38.8716 7.23181 38.5043 9.29683C39.0731 10.2088 40.3255 10.805 39.8054 11.7607C39.4307 12.4493 38.7622 12.6469 37.98 12.5956C36.6229 12.5067 36.6695 10.52 36.1953 9.60528C36.2232 9.35525 36.2843 9.12876 36.327 8.88393C36.6508 7.02645 36.4457 5.04355 36.2133 3.18758C36.3938 3.24962 36.4328 3.263 36.6226 3.27534C37.3856 2.98252 37.697 2.44743 38.0684 1.75195Z" fill="#1E1E1E"/>
<path d="M24.5125 14.5472C25.1606 14.5299 25.5103 14.5277 26.151 14.599C26.9553 15.5356 26.7791 15.7337 26.0661 16.5925C26.3494 16.9609 27.1083 18.0183 26.389 18.3387C26.0482 18.3286 26.0036 18.3251 25.7213 18.1377L25.2323 17.7679C24.8553 18.0995 24.5139 18.4986 23.9974 18.18C23.6745 17.5754 24.1333 17.0945 24.4838 16.6526C23.794 15.7668 23.5815 15.4098 24.5125 14.5472Z" fill="#1E1E1E"/>
<path d="M29.8877 11.8131C31.5249 11.6352 32.1438 13.8003 30.3526 14.7428L30.266 14.792C28.7196 14.2669 28.354 12.6232 29.8877 11.8131Z" fill="#1E1E1E"/>
<path d="M20.263 11.6641C20.32 11.6789 20.3766 11.6949 20.4329 11.7122C20.8889 11.852 21.2955 12.1269 21.5134 12.5613C21.6667 12.8638 21.6879 13.2162 21.5721 13.5348C21.3653 14.1111 20.9389 14.2833 20.4269 14.5357C18.8356 14.4046 18.3277 12.3788 20.263 11.6641Z" fill="#1E1E1E"/>
<path d="M16.1905 15.3926C17.1596 15.4075 19.5425 15.634 18.0805 17.1267C17.8045 17.1449 17.3093 17.0242 17.0178 16.9715C15.9878 16.785 15.3117 16.3649 16.1905 15.3926Z" fill="#1E1E1E"/>
<path d="M33.5005 15.6039C34.306 15.5158 34.6816 16.1544 34.2359 16.822C34.0634 17.0803 33.1925 17.0143 32.8293 17.0239C32.7562 17.044 32.6827 17.0624 32.6087 17.0788C31.4806 17.3247 30.9758 15.7455 33.5005 15.6039Z" fill="#1E1E1E"/>
<path d="M32.1191 17.5723C32.5676 17.733 32.9054 17.7036 33.3598 17.786C34.219 17.9418 35.0732 18.4878 33.8873 19.1016C33.7946 19.1239 33.7002 19.139 33.6051 19.1467C32.712 19.2221 30.8819 18.7413 32.1191 17.5723Z" fill="#1E1E1E"/>
<path d="M5.53483 33.9556C7.938 33.8822 10.5037 33.9261 12.9193 33.9373L23.0189 33.9706L48.7426 33.9971C48.5808 39.1964 48.7726 44.503 48.4921 49.7192C48.4035 51.3666 48.4147 53.3932 48.0194 54.992C47.8289 55.7628 46.8218 56.5008 46.1192 56.8706C44.5298 57.4217 38.9529 57.4532 37.0264 57.4948C32.6545 57.5945 28.2813 57.6282 23.9084 57.5959C22.4281 57.5797 20.9387 57.4984 19.4623 57.4791C15.7378 57.4306 12.0251 57.4501 8.31172 57.1115C7.02934 57.0587 5.00027 56.8093 4.24606 55.5682C3.44147 54.2444 3.47185 50.8599 3.41944 49.3002C3.3386 46.3982 3.30627 43.495 3.32259 40.592C3.31988 38.8355 3.36334 37.0813 3.32823 35.3249C3.31943 34.8868 3.31251 34.4306 3.35567 33.9955L5.53483 33.9556Z" fill="#FEFEFE"/>
<path d="M19.158 38.3152C20.1314 38.2378 21.0713 38.69 21.6181 39.4989C22.165 40.308 22.2345 41.3486 21.7997 42.223C21.3651 43.0975 20.4936 43.6705 19.5185 43.7229C18.0375 43.8025 16.7676 42.6768 16.6689 41.197C16.5703 39.7171 17.6796 38.4329 19.158 38.3152Z" fill="#1E1E1E"/>
<path d="M18.9747 47.4211C20.4402 47.2147 21.797 48.2317 22.0101 49.6962C22.2232 51.1608 21.2125 52.5222 19.7489 52.742C18.6828 52.9022 17.6241 52.41 17.0594 51.4917C16.4946 50.5733 16.5331 49.4064 17.1571 48.5273C17.5851 47.9243 18.2425 47.5242 18.9747 47.4211Z" fill="#1E1E1E"/>
<path d="M31.9161 38.3942C33.3679 38.0724 34.8042 38.9939 35.117 40.4476C35.4298 41.9014 34.4996 43.332 33.044 43.6359C31.6008 43.9372 30.1852 43.0168 29.8751 41.5755C29.565 40.1343 30.4767 38.7131 31.9161 38.3942Z" fill="#1E1E1E"/>
<path d="M32.1402 47.4472C33.5923 47.2542 34.9256 48.2757 35.1172 49.7278C35.3089 51.1801 34.2862 52.5124 32.8338 52.7026C31.3833 52.8927 30.0532 51.8716 29.8618 50.4214C29.6705 48.9712 30.6902 47.64 32.1402 47.4472Z" fill="#1E1E1E"/>
<path d="M15.7944 24.2988C17.8808 24.3523 20.1726 24.2991 22.2876 24.3012L36.7078 24.3154C36.696 25.8284 36.3382 27.2141 37.5335 28.4572C38.89 29.8679 41.2866 29.8416 42.6673 28.4967C43.8881 27.3075 43.6754 25.846 43.6761 24.3246C47.3309 24.4389 48.7505 24.3651 48.6766 28.5214C48.6653 29.1548 48.7025 29.9403 48.7115 30.5806C44.9778 30.4621 40.6611 30.5569 36.87 30.5374L3.46308 30.5357L3.46255 30.4855C3.45007 29.1253 3.39954 26.1446 4.38994 25.1818C5.45177 24.1497 7.48137 24.3451 8.87293 24.3411C8.87616 25.8679 8.53117 27.2109 9.81062 28.4513C11.2252 29.8227 13.6399 29.8318 15.0207 28.407C16.1178 27.2748 15.8277 25.732 15.7944 24.2988Z" fill="#FEFEFE"/>
<path d="M40.0496 17.9897C40.0496 17.9897 41.2542 17.6785 41.916 17.9838C42.6171 18.3071 42.9997 18.7696 43.1523 19.5264C43.3291 20.4035 42.9554 21.2521 42.3414 21.6693C42.0377 21.8756 41.603 21.3592 41.1724 21.5215C40.9928 21.5892 40.9754 21.551 40.7552 21.7811C39.8894 22.8984 38.8945 22.4467 38.0957 21.7829C36.9821 20.8576 37.5891 18.7425 38.9181 18.1678C39.3287 17.9903 40.0496 17.9897 40.0496 17.9897Z" fill="#FEFEFE"/>
<path d="M11.0508 17.92C11.6665 17.852 12.0614 17.8808 12.6206 18.1471C13.6423 18.6337 14.4256 19.5143 14.146 20.6109C14.0564 20.9623 13.7152 21.4335 13.7152 21.4335C13.7152 21.4335 12.8994 22.3525 12.2279 22.3049C11.9282 22.2837 11.7838 22.1546 11.4991 22.0588C10.8118 21.8274 10.325 21.6849 9.73777 21.4705C9.45511 21.3674 9.25336 21.4963 8.97258 21.6272C8.6918 21.7581 8.46103 21.2803 8.49803 20.7291C8.53502 20.1779 8.31202 19.8676 8.4899 19.3657C8.80409 18.4793 9.62062 18.0716 10.4954 18.0325C10.6668 18.0248 10.8308 17.9443 11.0508 17.92Z" fill="#FEFEFE"/>
<path d="M13.2192 24.0565C14.145 23.9167 14.1778 25.7152 13.5709 26.4282C13.0959 26.9864 12.5314 27.4109 11.746 26.8661C11.746 26.8661 11.3235 26.6132 11.1393 26.3683C10.6693 25.7435 10.4431 24.7122 11.1442 24.3663C11.5933 24.1447 11.9273 24.6887 12.4115 24.5611C12.7711 24.4663 12.8514 24.1121 13.2192 24.0565Z" fill="#FDC82D"/>
<path d="M41.0702 24.3067C41.0929 24.3275 41.1053 24.3396 41.1269 24.3617C41.9502 25.2017 41.3424 27.7629 39.4841 26.8861C38.6133 26.4189 38.3348 25.2462 38.9429 24.5181C39.478 23.8772 40.455 23.7423 41.0702 24.3067Z" fill="#FDC82D"/>
</svg>
