<svg width="40" height="40" viewBox="0 0 40 40" fill="none" xmlns="http://www.w3.org/2000/svg">
<rect x="0.25" y="0.25" width="39.5" height="39.5" rx="15.75" fill="white" stroke="#8A6400" stroke-width="0.5"/>
<path d="M22.5557 13C24.0549 13 25.3061 13.6084 26.1748 14.6338C27.0373 15.6518 27.5 17.0515 27.5 18.6143C27.5 19.908 26.9167 21.2121 25.8574 22.5264C24.9299 23.6771 23.6147 24.8638 21.9326 26.0957L21.1895 26.627C20.8402 26.8697 20.4252 27 20 27C19.6279 27 19.2635 26.9005 18.9443 26.7129L18.8105 26.627C16.7688 25.2043 15.2025 23.8414 14.1426 22.5264C13.0833 21.2121 12.5 19.908 12.5 18.6143C12.5 17.0515 12.9627 15.6518 13.8252 14.6338C14.6939 13.6084 15.9451 13 17.4443 13C18.495 13.0001 19.2489 13.596 20 14.2373C20.7511 13.5962 21.505 13.0001 22.5557 13Z" stroke="#8A6400"/>
</svg>
