<svg width="22" height="22" viewBox="0 0 22 22" fill="none" xmlns="http://www.w3.org/2000/svg">
<path d="M10.7001 12.9153C10.7001 13.6859 10.3471 14.7133 8.93535 14.7133" stroke="#736D66" stroke-width="1.2" stroke-linecap="round"/>
<path d="M10.7 12.9153C10.7 13.6859 11.0529 14.7133 12.4647 14.7133" stroke="#736D66" stroke-width="1.2" stroke-linecap="round"/>
<path d="M7.89729 3.16624C7.89729 3.16624 9.14288 2.85775 10.7 2.85775C12.2571 2.85775 13.5027 3.16624 13.5027 3.16624C14.5408 1.97672 17.2744 0.0324123 19.1429 0.929834C21.1692 1.90305 20.6654 5.23879 20.0426 6.42832C19.4197 7.61783 20.7 8.5079 20.7 11.4817C20.7 15.3064 18.3471 20.7004 10.7 20.7004C3.05293 20.7004 0.699997 15.3064 0.699997 11.4817C0.699997 8.5079 1.98027 7.61783 1.35744 6.42832C0.734599 5.23879 0.230774 1.90305 2.25709 0.929834C4.1256 0.0324123 6.85917 1.97672 7.89729 3.16624Z" stroke="#736D66" stroke-width="1.4"/>
<path d="M8.05258 11.0153C8.05258 11.6228 7.56013 12.1153 6.95256 12.1153C6.34506 12.1153 5.85258 11.6228 5.85258 11.0153C5.85258 10.4078 6.34506 9.91528 6.95256 9.91528C7.56013 9.91528 8.05258 10.4078 8.05258 11.0153Z" fill="#736D66"/>
<path d="M15.4059 11.0153C15.4059 11.6228 14.9134 12.1153 14.3058 12.1153C13.6983 12.1153 13.2059 11.6228 13.2059 11.0153C13.2059 10.4078 13.6983 9.91528 14.3058 9.91528C14.9134 9.91528 15.4059 10.4078 15.4059 11.0153Z" fill="#736D66"/>
</svg>
