<svg width="22" height="21" viewBox="0 0 22 21" fill="none" xmlns="http://www.w3.org/2000/svg">
<path d="M0.700012 9.0158C0.700012 8.4037 0.980302 7.82531 1.46072 7.44603L9.46072 1.13024C10.1873 0.556595 11.2127 0.556595 11.9393 1.13024L19.9393 7.44603C20.4197 7.82531 20.7 8.4037 20.7 9.0158V19.0992C20.7 19.3784 20.583 19.6461 20.3746 19.8435C20.1662 20.041 19.8836 20.1519 19.5889 20.1519H16.0333C14.9288 20.1519 14.0333 19.2564 14.0333 18.1519V13.667C14.0333 12.5624 13.1379 11.667 12.0333 11.667H9.36668C8.26211 11.667 7.36668 12.5624 7.36668 13.667V18.1519C7.36668 19.2564 6.47125 20.1519 5.36668 20.1519H1.81112C1.51644 20.1519 1.23382 20.041 1.02545 19.8435C0.817075 19.6461 0.700012 19.3784 0.700012 19.0992V9.0158Z" stroke="#736D66" stroke-width="1.4" stroke-linejoin="round"/>
</svg>
