<svg width="22" height="21" viewBox="0 0 22 21" fill="none" xmlns="http://www.w3.org/2000/svg">
<path d="M12.8249 3.47075C12.4258 4.96026 10.955 5.86034 9.53975 5.48113C8.12453 5.10192 7.30081 3.58703 7.69992 2.09752C8.09904 0.608008 9.56985 -0.29207 10.9851 0.0871374C12.4003 0.466345 13.224 1.98124 12.8249 3.47075Z" fill="#FDE1E1"/>
<path d="M19.917 8.06213C19.0397 9.44437 17.3299 9.91903 16.0979 9.1223C14.8659 8.32557 14.5783 6.55916 15.4555 5.17692C16.3328 3.79468 18.0426 3.32002 19.2746 4.11675C20.5066 4.91348 20.7942 6.67988 19.917 8.06213Z" fill="#FDE1E1"/>
<path d="M21.3339 16.366C20.6487 17.4457 19.2696 17.7884 18.2537 17.1314C17.2377 16.4744 16.9697 15.0665 17.6549 13.9868C18.3402 12.907 19.7192 12.5644 20.7352 13.2214C21.7511 13.8784 22.0192 15.2863 21.3339 16.366Z" fill="#FDE1E1"/>
<path d="M4.35531 4.76653C4.55358 6.02843 3.74605 7.21455 2.55163 7.41581C1.35721 7.61707 0.228207 6.75725 0.0299297 5.49535C-0.168348 4.23345 0.639185 3.04733 1.8336 2.84607C3.02802 2.64482 4.15703 3.50463 4.35531 4.76653Z" fill="#FDE1E1"/>
<path d="M15.1214 14.1345C14.7313 11.4146 13.5232 8.96328 10.8831 7.80698C5.63334 5.50767 1.39727 10.5608 0.673624 13.2615C0.182046 15.0961 1.45492 17.9832 4.39466 17.5965C7.59291 17.1758 8.31274 18.5387 9.08283 19.3345C9.97123 20.2525 11.7255 20.4812 12.6701 20.1192C14.5594 19.3954 15.5934 17.4252 15.1214 14.1345Z" fill="#FDE1E1"/>
</svg>
