<svg width="44" height="44" viewBox="0 0 44 44" fill="none" xmlns="http://www.w3.org/2000/svg">
<rect x="0.25" y="0.25" width="43.5" height="43.5" rx="15.75" fill="#FDCA18" stroke="#EEE9DF" stroke-width="0.5"/>
<path d="M14 14.6C14 14.0399 14 13.7599 14.109 13.546C14.2049 13.3578 14.3578 13.2049 14.546 13.109C14.7599 13 15.0399 13 15.6 13H28.4C28.9601 13 29.2401 13 29.454 13.109C29.6422 13.2049 29.7951 13.3578 29.891 13.546C30 13.7599 30 14.0399 30 14.6V28.6912C30 29.4669 30 29.8548 29.8371 30.1041C29.6946 30.3222 29.4726 30.476 29.2183 30.5329C28.9277 30.5979 28.5645 30.4617 27.8382 30.1893L27.3618 30.0107C27.1539 29.9327 27.05 29.8937 26.943 29.8783C26.8482 29.8646 26.7518 29.8646 26.657 29.8783C26.55 29.8937 26.4461 29.9327 26.2382 30.0107L24.1618 30.7893C23.9539 30.8673 23.85 30.9063 23.743 30.9217C23.6482 30.9354 23.5518 30.9354 23.457 30.9217C23.35 30.9063 23.2461 30.8673 23.0382 30.7893L20.9618 30.0107C20.7539 29.9327 20.65 29.8937 20.543 29.8783C20.4482 29.8646 20.3518 29.8646 20.257 29.8783C20.15 29.8937 20.0461 29.9327 19.8382 30.0107L17.7618 30.7893C17.5539 30.8673 17.45 30.9063 17.343 30.9217C17.2482 30.9354 17.1518 30.9354 17.057 30.9217C16.95 30.9063 16.8461 30.8673 16.6382 30.7893L15.0382 30.1893C14.6639 30.049 14.4767 29.9788 14.3388 29.8572C14.217 29.7499 14.1231 29.6144 14.0654 29.4626C14 29.2908 14 29.091 14 28.6912V14.6Z" fill="white" stroke="white" stroke-width="1.2" stroke-linejoin="round"/>
<path d="M17 17H26M17 21H26M17 25H23.75" stroke="#FDCA18" stroke-width="1.2" stroke-linecap="round"/>
</svg>
