<svg width="86" height="85" viewBox="0 0 86 85" fill="none" xmlns="http://www.w3.org/2000/svg">
<path d="M5.66242 47.2089C7.33959 47.7688 11.078 49.343 12.6142 51.1608M2.41248 55.6588L9.62115 56.6546M66.258 69.6282L70.3674 69.2113M65.1894 63.3839C66.4712 62.9677 69.7381 62.3082 72.5508 62.9997M70.8017 75.9359C73.863 74.882 77.6795 71.9254 78.7575 69.878M69.1512 82.6755C73.4696 81.568 77.2179 79.9273 79.1789 77.2446M6.61211 58.7004C7.33932 55.3549 9.70259 46.7447 17.0432 41.8515C18.5525 35.9507 22.4694 24.0613 26.0624 23.7094C30.5536 23.2695 35.243 31.2635 36.9243 36.9108C39.6775 36.8998 46.2798 37.5517 50.6635 40.2475C54.0355 36.7625 61.8533 30.2968 66.149 32.314C71.5186 34.8355 66.8976 49.647 66.1836 51.2524C67.8337 54.3835 70.6785 62.6275 68.8564 70.5551" stroke="#FFF5C7" stroke-width="3" stroke-linecap="round"/>
<path d="M29.946 54.5448C29.6161 56.1266 28.3457 57.1998 27.1086 56.9417C25.8715 56.6837 25.1361 55.1922 25.4661 53.6103C25.7961 52.0284 27.0664 50.9553 28.3035 51.2133C29.5406 51.4714 30.276 52.9629 29.946 54.5448Z" fill="#FFF5C7"/>
<path d="M51.7757 59.6078C51.4225 61.3011 50.0627 62.4498 48.7384 62.1736C47.4141 61.8974 46.627 60.3008 46.9802 58.6074C47.3334 56.9141 48.6932 55.7654 50.0175 56.0416C51.3418 56.3178 52.1289 57.9145 51.7757 59.6078Z" fill="#FFF5C7"/>
<path d="M35.6968 58.2875C34.7195 58.7755 35.0923 59.7359 35.6397 60.401C34.6095 61.909 34.1132 61.2513 33.3877 60.8367C32.6622 60.4221 32.0219 60.8068 31.7886 61.3624C31.5251 61.9901 31.8839 63.2225 33.3616 63.8589C34.5438 64.368 36.1176 63.3636 36.7462 62.8741C37.6332 65.2365 40.1447 65.1889 40.9608 64.9479C41.7769 64.707 42.0572 63.5275 41.5439 62.71C41.0306 61.8925 40.3704 62.7051 39.5585 62.6322C38.9091 62.5739 38.7387 61.4842 38.7346 60.9466C39.416 60.8311 40.3868 60.0366 39.7254 59.1578C38.8489 57.9931 36.6217 57.8258 35.6968 58.2875Z" fill="#FFF5C7"/>
<path d="M76.3423 2.00884C78.3926 2.57818 79.1856 4.82 78.4842 7.34605C77.9398 9.3063 75.7866 11.0337 72.0516 12.6094C71.8065 12.7125 71.5441 12.7314 71.2995 12.6635C71.055 12.5955 70.8399 12.4441 70.683 12.2294C68.2952 8.95351 67.3409 6.36322 67.8852 4.40297C68.5866 1.87692 70.4219 0.364905 72.4723 0.934245C73.2128 1.13986 73.5681 1.8083 74.0743 2.67067C74.9527 2.19293 75.6018 1.80323 76.3423 2.00884Z" fill="#FFF5C7"/>
<path d="M77.8853 18.5136C78.863 19.5095 78.5781 21.0427 77.3512 22.2472C76.3991 23.1819 74.6097 23.4567 71.9718 23.1265C71.7987 23.1047 71.6436 23.0293 71.5269 22.9106C71.4103 22.7918 71.3379 22.6353 71.3192 22.4618C71.0376 19.8183 71.3452 18.0342 72.2972 17.0995C73.5241 15.895 75.0623 15.6383 76.04 16.6341C76.3931 16.9937 76.3757 17.4899 76.3803 18.1457C77.0358 18.1624 77.5322 18.154 77.8853 18.5136Z" fill="#FFF5C7"/>
</svg>
