<svg width="95" height="101" viewBox="0 0 95 101" fill="none" xmlns="http://www.w3.org/2000/svg">
<path d="M12.553 28.2341C13.8577 29.5387 13.9104 31.6012 12.6708 32.8408C11.4312 34.0804 9.36873 34.0276 8.06408 32.723C6.75943 31.4183 6.70668 29.3558 7.94626 28.1162C9.18585 26.8767 11.2484 26.9294 12.553 28.2341Z" fill="#FFF5C7"/>
<path d="M21.5534 23.6321C22.4608 25.368 21.9297 27.4237 20.3671 28.2236C18.8045 29.0236 16.8022 28.2648 15.8947 26.5289C14.9872 24.793 15.5183 22.7373 17.0809 21.9374C18.6435 21.1374 20.6459 21.8962 21.5534 23.6321Z" fill="#FFF5C7"/>
<path d="M31.0054 27.1316C31.7143 28.4876 31.2444 30.1216 29.9558 30.7812C28.6672 31.4409 27.048 30.8764 26.3392 29.5204C25.6303 28.1644 26.1002 26.5304 27.3888 25.8708C28.6774 25.2111 30.2966 25.7756 31.0054 27.1316Z" fill="#FFF5C7"/>
<path d="M8.82879 37.7854C10.255 38.3348 11.0009 39.8812 10.4949 41.2392C9.98889 42.5973 8.42253 43.2528 6.99635 42.7033C5.57016 42.1538 4.82421 40.6075 5.33023 39.2494C5.83624 37.8914 7.4026 37.2359 8.82879 37.7854Z" fill="#FFF5C7"/>
<path d="M24.9766 32.234C21.9249 31.0111 18.6621 30.7963 15.8845 32.8402C10.3613 36.9045 13.0631 44.3168 15.4286 46.6824C17.0355 48.2893 20.7886 48.6975 22.1467 45.4201C23.6241 41.8544 25.467 41.9239 26.7522 41.602C28.2349 41.2306 29.5213 39.5497 29.7114 38.3543C30.0917 35.9636 28.6688 33.7135 24.9766 32.234Z" fill="#FFF5C7"/>
<path d="M33.2347 4.27242C33.533 5.38554 32.9174 6.51763 31.8598 6.80102C30.8022 7.0844 29.7031 6.41177 29.4048 5.29865C29.1065 4.18553 29.7221 3.05344 30.7797 2.77005C31.8373 2.48667 32.9365 3.1593 33.2347 4.27242Z" fill="#FFF5C7"/>
<path d="M39.5402 4.59393C39.4889 5.81628 38.5597 6.76236 37.4647 6.70707C36.3696 6.65177 35.5235 5.61604 35.5747 4.39369C35.626 3.17133 36.5552 2.22525 37.6503 2.28054C38.7453 2.33584 39.5914 3.37157 39.5402 4.59393Z" fill="#FFF5C7"/>
<path d="M43.56 9.43862C43.52 10.3934 42.7555 11.1305 41.8525 11.0849C40.9495 11.0393 40.2499 10.2283 40.29 9.27349C40.33 8.31867 41.0945 7.58159 41.9975 7.62719C42.9005 7.67278 43.6 8.48379 43.56 9.43862Z" fill="#FFF5C7"/>
<path d="M28.2375 8.27572C28.8373 9.01832 28.7579 10.0877 28.0601 10.6642C27.3623 11.2408 26.3103 11.1062 25.7105 10.3636C25.1107 9.621 25.1901 8.55162 25.8879 7.97507C26.5857 7.39852 27.6377 7.53313 28.2375 8.27572Z" fill="#FFF5C7"/>
<path d="M38.7055 10.3157C37.4367 8.70126 35.739 7.56618 33.5983 7.80431C29.3415 8.27783 28.4881 13.131 29.0289 15.1492C29.3963 16.5202 31.2988 17.9131 33.0569 16.5644C34.9696 15.0971 35.9447 15.7102 36.7404 15.9374C37.6584 16.1996 38.8792 15.6921 39.3553 15.1049C40.3076 13.9305 40.2406 12.2691 38.7055 10.3157Z" fill="#FFF5C7"/>
<path d="M48.7422 49.8445C50.1119 49.2096 52.7704 48.9467 54.2754 49.003C58.8215 49.1547 63.117 51.1229 66.2003 54.4671C69.5225 58.0984 71.1166 62.9864 70.5738 67.8781C70.4898 68.6876 70.3677 69.4915 70.2043 70.2895C70.1175 70.7134 69.8959 71.0629 69.8801 71.4617C70.085 71.6411 71.3933 71.6447 71.7521 71.6555C76.98 71.813 81.8205 70.0869 86.1736 67.2891C86.941 66.8009 87.8375 66.0904 88.5728 65.6C89.3357 65.0914 90.3516 63.6992 91.0818 64.8524C91.1721 64.9952 91.3648 65.3629 91.2663 65.512C90.3019 66.9653 88.4793 68.0348 87.0636 69.0563C82.5452 72.0491 74.3825 74.409 69.0372 73.2715C68.6108 74.5794 67.0871 76.6969 66.1179 77.7405C63.1362 80.9195 59.0314 82.8088 54.6775 83.0064C52.9724 84.9414 52.2645 85.8553 50.1782 87.6197C44.0633 92.6614 36.1237 94.6176 28.3238 94.1004C27.0393 94.0152 26.6131 93.2768 27.5973 92.2626C27.7614 92.0935 29.4999 92.2434 29.8971 92.2671C37.5851 92.7257 45.2793 89.9287 50.8326 84.5724C51.4161 84.0095 51.8968 83.406 52.5476 82.9169C44.7299 82.1628 38.9297 75.761 37.961 68.1168C37.8498 67.2396 37.9304 65.7671 39.5309 66.4789C39.8997 66.643 39.8978 68.0364 39.9205 68.5185C40.6336 67.2247 42.0146 65.6812 42.3295 64.402C41.8095 64.4749 38.3566 65.1408 38.1387 65.0619C37.2543 64.2141 38.6157 59.9986 39.0434 58.9882C40.9384 54.511 44.2825 51.6182 48.7422 49.8445ZM40.6066 70.8114C40.9348 72.1411 41.8778 73.9901 42.678 75.1329C43.4 73.5926 43.7499 72.1171 44.3911 70.6462C46.5372 65.7235 48.6336 60.4366 51.9371 56.1914C51.9493 56.1757 52.151 56.1533 52.1886 56.1501C52.4491 57.4391 49.4044 63.2634 48.7258 64.8707C47.9502 66.7239 47.228 68.599 46.5603 70.4939C46.2211 71.4653 45.5794 72.315 46.5842 72.9753C47.3074 73.4553 48.1136 73.7965 48.9617 73.9815C49.2005 72.8556 49.4941 70.5125 49.8325 69.5924C51.1526 66.0028 53.068 62.7419 54.9131 59.4212C56.2234 57.0631 57.5779 54.0238 59.5018 52.1092C58.0768 51.6465 56.2512 51.0654 54.7448 51.0091C53.9407 52.0078 53.279 53.7535 52.2979 54.9218C51.3747 56.0209 50.1795 56.4455 49.3885 57.3514C48.5852 58.2716 47.6302 59.7153 46.9435 60.7534L44.3877 64.6333C43.1941 66.4825 41.9885 68.2515 40.9418 70.2042C40.8296 70.4136 40.7088 70.5906 40.6066 70.8114ZM59.5032 55.5237C60.0904 56.1716 60.7726 56.7229 61.3089 57.4161C63.8636 60.7182 65.189 64.8332 64.9822 68.9936C64.9657 69.3163 64.9463 69.6387 64.9238 69.961C65.7202 70.2439 66.4915 70.4375 67.2664 70.7093C67.5978 70.8384 67.6255 70.9176 67.8989 70.8389C68.1136 70.5677 68.1027 70.0907 68.1945 69.7548C69.6548 64.4097 67.6136 57.8002 63.1925 54.3813C62.8089 54.0847 61.4608 53.0184 61.0303 53.0548C60.5614 53.908 60.0786 54.7352 59.5032 55.5237ZM51.2668 70.7642C52.6092 71.3578 54.0553 71.8087 55.3371 72.3627C57.3812 73.2461 59.4581 74.1169 61.4843 75.0252C62.2083 75.3496 64.04 75.959 64.5813 76.2496C64.8043 76.2187 64.8472 76.1672 64.9897 75.976C65.7866 74.8865 66.4753 74.0118 67.0623 72.7871C63.0199 71.2794 58.9795 69.7614 54.9549 68.2014C54.3831 67.9798 53.6168 67.5978 53.0456 67.4527C52.4867 68.564 51.9157 69.7046 51.2668 70.7642ZM46.7142 56.1925L48.5669 56.5373C49.1742 55.4841 49.8127 54.6579 50.5015 53.666C51.183 52.6846 51.5788 51.995 52.3941 51.1189C51.4371 51.3355 50.5013 51.5311 49.568 51.8373C46.4568 53.0564 45.1695 53.9447 42.9568 56.5222C43.879 56.2792 45.761 55.9946 46.7142 56.1925ZM39.9239 62.9169C41.3792 62.2371 42.42 62.3249 43.9852 62.1894C44.1528 62.1749 44.331 61.9529 44.4087 61.8079C45.0206 60.6853 45.8853 59.3511 46.6961 58.3681C44.7047 58.3311 43.0278 58.8923 41.4628 58.8264C40.7601 59.6271 40.2568 61.8842 39.9239 62.9169ZM61.4607 68.6575C61.99 68.9258 62.388 69.0899 62.9421 69.307C62.9948 64.9469 61.8184 60.7451 58.6599 57.6594C58.5581 57.56 58.4645 57.4412 58.329 57.3938C57.8064 58.5753 57.0307 59.4547 56.4294 60.509C56.8706 61.0149 57.4147 61.5439 57.8002 62.1015C58.8995 63.6911 59.1531 65.9629 59.2684 67.7706C59.2807 67.9638 61.0212 68.5087 61.4607 68.6575ZM55.5783 62.0492C55.2008 62.9185 54.1726 64.9417 53.7121 65.8373C54.3847 66.0158 55.3174 66.361 55.9682 66.6444C56.4878 66.9233 57.0242 66.9909 57.5618 67.2753C57.2634 65.9869 56.6801 62.9978 55.7146 62.0747L55.5783 62.0492ZM57.9043 76.425C55.6151 78.5668 53.0138 80.0065 49.8757 80.3714C51.3555 80.834 53.4526 81.1977 55.0002 80.9385C57.5984 80.8312 60.5465 79.7435 62.6376 78.2005C61.8272 77.9962 58.3221 76.3947 57.9043 76.425ZM54.8097 75.238C51.9777 76.0846 49.5845 76.5074 46.7608 75.1102C46.4394 74.9512 45.344 74.2295 45.0899 74.2001C44.6899 75.1348 44.3948 75.5236 43.7722 76.3423C44.3836 77.137 46.6113 78.9157 47.5347 79.3499C50.1017 78.8959 51.8366 78.4736 54.0806 77.0458C54.7135 76.6431 55.7551 75.8883 56.337 75.551C55.738 75.2902 54.3959 74.7327 53.8821 74.3988C53.2431 74.0468 51.2333 72.8227 50.6175 72.8611C50.3307 73.0671 50.349 73.7185 50.5401 73.9901C50.9994 74.2385 52.3585 74.465 52.9395 74.6221C53.6675 74.819 54.0933 74.96 54.8097 75.238Z" fill="#FFF5C7"/>
<path d="M15.4942 89.0072C15.9353 88.881 16.5258 89.0326 16.9324 89.234C19.1944 90.3543 21.6353 90.8701 24.0212 91.6292C24.8592 91.8958 24.533 92.5757 24.2421 93.1553C23.1221 93.6504 16.9649 91.342 15.6351 90.6889C14.9939 90.374 15.115 89.5372 15.4942 89.0072Z" fill="#FFF5C7"/>
<path d="M6.53356 83.7594C7.10265 83.6252 7.91584 84.1778 8.39194 84.5066C9.5645 85.3164 10.9068 85.9043 12.0514 86.7361C12.7411 87.2373 12.3074 87.9077 11.9427 88.4432C11.9048 88.4485 11.8669 88.454 11.8287 88.4569C10.9393 88.5259 7.19247 86.1103 6.41536 85.4464C6.21055 85.2714 5.97979 85.0747 5.97089 84.784C5.95846 84.3793 6.26932 84.0298 6.53356 83.7594Z" fill="#FFF5C7"/>
</svg>
