<svg width="63" height="73" viewBox="0 0 63 73" fill="none" xmlns="http://www.w3.org/2000/svg">
<path d="M14.739 10.3031C14.4196 8.40097 15.0795 1.57384 16.9433 0.39374C19.2397 -1.06035 22.7604 1.87584 24.3758 3.31561C24.6505 3.56042 25.0687 4.23967 25.4537 4.39479C26.519 4.46809 27.5223 4.08137 28.678 4.06286C31.0897 4.02444 33.0015 4.11227 35.3869 4.56159C36.6602 2.71322 41.1126 -0.235985 43.4925 0.271958C43.8994 0.419503 44.1464 0.51114 44.5285 0.708487C44.8837 1.24838 44.994 1.46973 45.2511 2.06283C45.8541 4.45667 46.2059 8.51492 45.7694 10.9463C46.4454 12.02 46.8579 12.6768 47.3159 13.8474C47.5217 14.0035 47.5819 14.188 47.6959 14.4232C49.6522 13.1752 50.2955 15.1177 49.6252 15.7321C49.2532 16.0732 48.3469 15.9558 48.3469 15.9558C48.418 16.4785 48.4837 17.0021 48.5439 17.5261C49.523 17.5302 49.8546 17.3695 50.2488 18.3555C53.5183 19.2728 55.3504 21.1341 54.9112 24.6908C62.7025 25.2199 62.109 31.4669 62.0563 37.4366L61.9857 44.2428C61.9418 49.8397 61.9383 55.3981 61.6084 60.9932C61.4636 63.4439 61.3394 65.64 59.9576 67.8169C57.2165 72.1368 51.0384 71.396 46.6119 71.736C38.4376 72.1205 30.1652 72.0206 21.9846 71.8063C17.814 71.6971 13.6566 71.6738 9.50688 71.2751C7.6983 71.0932 5.18369 70.5531 3.66677 69.607C2.15475 68.6839 1.07805 67.2005 0.676184 65.4869C0.172152 63.2379 0.192889 61.3226 0.104847 59.0804C-0.0345015 55.5316 0.014927 52.0177 0 48.4664L0.0164456 39.781C0.0203785 36.9679 -0.0094747 34.267 0.299344 31.4634C0.755019 27.3252 2.64752 25.5342 6.61238 24.6837C6.07814 21.6092 7.55502 20.02 10.1614 18.7471C9.65847 18.6579 9.38853 18.7025 9.17795 18.2267C9.19412 17.8823 9.31961 17.4458 9.66195 17.1178C10.2818 16.5238 11.1191 17.1021 11.8703 17.1165C11.8889 16.5499 11.9151 16.1379 11.9834 15.5754C11.9834 15.5754 11.1137 15.5933 10.7401 15.2627C10.161 14.7502 9.62236 13.9751 10.6549 13.2949C11.0716 13.0205 12.1768 13.9146 12.7416 14.142L12.8093 14.1685C12.8816 13.8343 12.8841 13.7393 13.1159 13.483C12.9154 12.7752 14.2999 11.1237 14.739 10.3031Z" fill="#3A3A3A"/>
<path d="M14.739 10.3031C14.4196 8.40097 15.0795 1.57384 16.9433 0.39374C19.2397 -1.06035 22.7604 1.87584 24.3758 3.31561C24.6505 3.56042 25.0687 4.23967 25.4537 4.39479C26.5191 4.46809 27.5223 4.08137 28.678 4.06286C31.0897 4.02444 33.0015 4.11227 35.3869 4.56159C36.6602 2.71322 41.1127 -0.235985 43.4925 0.271957C43.8994 0.419503 44.1464 0.51114 44.5285 0.708487C44.8837 1.24838 44.9941 1.46972 45.2511 2.06283C45.8543 4.45667 46.2059 8.51492 45.7694 10.9463C46.4455 12.02 46.8579 12.6768 47.3159 13.8474C47.5219 14.0035 47.582 14.188 47.696 14.4232C46.9562 14.9803 45.3576 15.5578 45.4652 16.4448C45.8274 17.0396 46.3793 17.1054 47.0666 17.3278C45.9556 17.9851 46.1796 18.7214 46.0494 18.7803C43.7258 19.8309 41.4565 21.2185 41.6034 24.5482C36.0028 24.5095 30.3755 24.6926 24.7703 24.6102C22.9893 24.5839 21.1297 24.5487 19.3525 24.6081C19.383 23.9134 19.2486 23.2023 19.2438 22.5088C19.2833 22.4042 19.1972 22.3619 19.3333 22.3754C20.1431 22.4562 21.9214 22.228 22.0822 21.2702C21.796 20.2128 19.8086 20.3387 19.2761 21.1261C18.9831 21.5593 19.0678 21.715 19.1215 22.2112C18.2673 20.1192 16.515 19.045 14.6281 18.5104C14.608 18.5047 13.8306 17.4917 13.7372 17.3487C13.8163 16.9539 14.4633 16.667 14.6884 16.3313C15.4264 15.2306 13.4969 14.6303 12.8093 14.1685C12.8817 13.8343 12.8841 13.7393 13.1159 13.483C12.9154 12.7752 14.3 11.1237 14.739 10.3031Z" fill="#FEFEFE"/>
<path d="M14.739 10.3031C14.4197 8.40097 15.0796 1.57384 16.9433 0.39374C19.2398 -1.06035 22.7604 1.87584 24.3759 3.31561C24.6505 3.56042 25.0688 4.23967 25.4537 4.39479C26.5191 4.46809 27.5224 4.08137 28.6781 4.06286C31.0898 4.02444 33.0015 4.11227 35.387 4.56159C36.6602 2.71322 41.1127 -0.235985 43.4926 0.271958C43.8194 0.340348 44.1888 0.432078 44.5286 0.708487C44.9953 1.08816 44.9941 1.46973 45.2511 2.06283C44.8098 2.8817 44.4396 3.51172 43.5326 3.85648C43.307 3.84197 43.2607 3.82621 43.0461 3.75317C43.0166 3.48755 43.0058 3.1798 42.8799 2.94908C42.5515 2.85364 42.5986 2.90021 42.2195 2.99228C40.9469 3.39176 38.9599 4.69475 37.9588 5.62828C37.6427 5.92293 36.668 7.14181 36.4069 7.22981C35.2877 7.50135 33.8741 6.95154 32.7419 6.90312C30.9351 6.82599 29.1679 6.7951 27.3735 6.92198C25.4948 7.05468 24.1832 8.25232 23.3724 5.89017C22.5336 5.45634 21.7014 4.60303 20.9205 4.03338C20.1466 3.46878 19.3751 3.0276 18.5378 2.56474C17.3242 5.17081 17.1808 8.07817 17.3395 10.8133C17.3555 11.091 16.1062 15.5147 15.0358 14.2862C14.8772 14.104 14.8259 13.9399 14.7008 13.7671C14.4749 13.4555 13.6219 13.8532 13.116 13.483C11.986 12.6562 14.3 11.1237 14.739 10.3031Z" fill="#3A3A3A"/>
<path d="M45.2511 2.06274C45.8541 4.45659 46.2059 8.51484 45.7693 10.9462C46.4454 12.02 47.9341 12.722 47.3159 13.8472C46.8705 14.658 46.0758 14.8907 45.146 14.8303C43.5329 14.7256 43.5883 12.3864 43.0246 11.3094C43.0578 11.015 43.1304 10.7483 43.1812 10.4601C43.566 8.27304 43.3222 5.93834 43.046 3.75308C43.2606 3.82613 43.3069 3.84188 43.5325 3.85641C44.4395 3.51164 44.8096 2.88162 45.2511 2.06274Z" fill="#3A3A3A"/>
<path d="M29.1375 17.1281C29.9079 17.1078 30.3236 17.1052 31.0852 17.1891C32.0412 18.2919 31.8318 18.5251 30.9842 19.5363C31.321 19.9701 32.2231 21.2151 31.3681 21.5923C30.963 21.5804 30.9099 21.5763 30.5744 21.3556L29.9931 20.9202C29.545 21.3107 29.1392 21.7806 28.5252 21.4055C28.1414 20.6936 28.6868 20.1274 29.1034 19.6071C28.2834 18.5641 28.0308 18.1438 29.1375 17.1281Z" fill="#3A3A3A"/>
<path d="M35.5269 13.9089C37.473 13.6994 38.2087 16.2487 36.0795 17.3584L35.9766 17.4163C34.1384 16.798 33.7038 14.8627 35.5269 13.9089Z" fill="#3A3A3A"/>
<path d="M24.0862 13.7336C24.154 13.7511 24.2212 13.7699 24.2882 13.7903C24.8302 13.9549 25.3135 14.2786 25.5725 14.79C25.7548 15.1462 25.78 15.5611 25.6423 15.9362C25.3965 16.6148 24.8896 16.8175 24.281 17.1147C22.3895 16.9604 21.7858 14.5751 24.0862 13.7336Z" fill="#3A3A3A"/>
<path d="M19.2453 18.1235C20.3973 18.1411 23.2298 18.4078 21.4919 20.1653C21.1638 20.1867 20.5752 20.0446 20.2287 19.9826C19.0044 19.763 18.2007 19.2683 19.2453 18.1235Z" fill="#3A3A3A"/>
<path d="M39.8213 18.3724C40.7788 18.2687 41.2253 19.0206 40.6955 19.8066C40.4905 20.1108 39.4552 20.033 39.0235 20.0444C38.9366 20.068 38.8492 20.0897 38.7613 20.109C37.4203 20.3985 36.8203 18.5391 39.8213 18.3724Z" fill="#3A3A3A"/>
<path d="M38.1793 20.6899C38.7124 20.8792 39.114 20.8445 39.6541 20.9416C40.6754 21.125 41.6908 21.7679 40.2811 22.4906C40.1709 22.5168 40.0587 22.5346 39.9457 22.5437C38.8841 22.6324 36.7087 22.0663 38.1793 20.6899Z" fill="#3A3A3A"/>
<path d="M6.57914 39.9801C9.43573 39.8936 12.4855 39.9453 15.3569 39.9585L27.3621 39.9977L57.9393 40.0289C57.747 46.1507 57.975 52.3988 57.6415 58.5404C57.5362 60.4801 57.5495 62.8663 57.0797 64.7487C56.8532 65.6563 55.6561 66.5252 54.8209 66.9606C52.9316 67.6095 46.3025 67.6466 44.0125 67.6956C38.8157 67.813 33.6174 67.8526 28.4194 67.8146C26.6598 67.7955 24.8894 67.6998 23.1344 67.6771C18.7072 67.62 14.294 67.6429 9.87997 67.2443C8.35563 67.1821 5.94372 66.8885 5.0472 65.4272C4.0908 63.8685 4.12691 59.8835 4.06462 58.0471C3.96852 54.6302 3.93009 51.2119 3.94949 47.7939C3.94627 45.7258 3.99793 43.6603 3.9562 41.5923C3.94574 41.0765 3.93751 40.5393 3.98881 40.027L6.57914 39.9801Z" fill="#FEFEFE"/>
<path d="M15.5319 46.0087C16.5196 45.9301 17.4734 46.389 18.0282 47.2098C18.5832 48.0308 18.6537 49.0867 18.2125 49.974C17.7715 50.8614 16.8872 51.4428 15.8977 51.496C14.3949 51.5767 13.1063 50.4345 13.0062 48.9329C12.9061 47.4312 14.0318 46.1281 15.5319 46.0087Z" fill="#3A3A3A"/>
<path d="M46.5319 46.0087C47.5196 45.9301 48.4734 46.389 49.0282 47.2098C49.5832 48.0308 49.6537 49.0867 49.2125 49.974C48.7715 50.8614 47.8872 51.4428 46.8977 51.496C45.3949 51.5767 44.1063 50.4345 44.0062 48.9329C43.9061 47.4312 45.0318 46.1281 46.5319 46.0087Z" fill="#3A3A3A"/>
<path d="M15.3664 55.5272C16.8653 55.3161 18.253 56.3563 18.471 57.8542C18.6889 59.3521 17.6552 60.7446 16.1583 60.9694C15.0679 61.1332 13.9851 60.6298 13.4075 59.6906C12.8298 58.7513 12.8692 57.5578 13.5074 56.6586C13.9452 56.0419 14.6175 55.6327 15.3664 55.5272Z" fill="#3A3A3A"/>
<path d="M46.3664 55.5272C47.8653 55.3161 49.253 56.3563 49.471 57.8542C49.6889 59.3521 48.6552 60.7446 47.1583 60.9694C46.0679 61.1332 44.9851 60.6298 44.4075 59.6906C43.8298 58.7513 43.8692 57.5578 44.5074 56.6586C44.9452 56.0419 45.6175 55.6327 46.3664 55.5272Z" fill="#3A3A3A"/>
<path d="M31.1552 46.0657C32.6441 45.7357 34.1171 46.6808 34.4379 48.1716C34.7587 49.6626 33.8047 51.1298 32.3119 51.4414C30.8319 51.7504 29.3801 50.8065 29.0621 49.3284C28.7441 47.8503 29.679 46.3928 31.1552 46.0657Z" fill="#3A3A3A"/>
<path d="M31.3876 55.5243C32.8941 55.3241 34.2773 56.3838 34.476 57.8902C34.6749 59.3969 33.6139 60.7791 32.1072 60.9764C30.6024 61.1736 29.2225 60.1143 29.0239 58.6098C28.8255 57.1053 29.8833 55.7243 31.3876 55.5243Z" fill="#3A3A3A"/>
<path d="M18.7745 28.6099C21.2545 28.6729 23.9787 28.6102 26.4928 28.6127L43.6338 28.6294C43.6198 30.4108 43.1945 32.0424 44.6153 33.506C46.2277 35.167 49.0765 35.1361 50.7177 33.5526C52.1689 32.1524 51.916 30.4316 51.9169 28.6402C56.2613 28.7748 57.9487 28.6879 57.8609 33.5816C57.8474 34.3274 57.8916 35.2523 57.9023 36.0062C53.4642 35.8667 48.333 35.9783 43.8266 35.9553L4.11649 35.9533L4.11586 35.8942C4.10102 34.2927 4.04096 30.7831 5.21823 29.6495C6.4804 28.4343 8.89295 28.6644 10.5471 28.6597C10.5509 30.4574 10.1408 32.0386 11.6617 33.4991C13.3432 35.1138 16.2135 35.1245 17.8548 33.4469C19.1589 32.1139 18.8141 30.2973 18.7745 28.6099Z" fill="#FEFEFE"/>
<path d="M47.6061 21.1815C47.6061 21.1815 49.038 20.8151 49.8247 21.1746C50.6581 21.5552 51.1128 22.0998 51.2942 22.9909C51.5044 24.0236 51.0602 25.0227 50.3303 25.514C49.9693 25.7569 49.4526 25.1488 48.9408 25.3399C48.7273 25.4196 48.7066 25.3747 48.4449 25.6456C47.4157 26.9611 46.2331 26.4293 45.2836 25.6477C43.9599 24.5582 44.6814 22.0679 46.2611 21.3912C46.7492 21.1822 47.6061 21.1815 47.6061 21.1815Z" fill="#FEFEFE"/>
<path d="M13.1359 21.0994C13.8677 21.0193 14.3371 21.0532 15.0018 21.3668C16.2163 21.9397 17.1474 22.9765 16.8151 24.2677C16.7085 24.6814 16.303 25.2362 16.303 25.2362C16.303 25.2362 15.3332 26.3183 14.535 26.2622C14.1788 26.2373 14.0072 26.0853 13.6687 25.9725C12.8518 25.7 12.2731 25.5322 11.5751 25.2798C11.2391 25.1584 10.9993 25.3102 10.6655 25.4643C10.3318 25.6184 10.0574 25.0558 10.1014 24.4068C10.1454 23.7579 9.88032 23.3925 10.0918 22.8016C10.4652 21.7579 11.4358 21.2779 12.4757 21.2318C12.6794 21.2228 12.8743 21.128 13.1359 21.0994Z" fill="#FEFEFE"/>
<path d="M15.7134 28.3245C16.8139 28.1599 16.8529 30.2775 16.1314 31.117C15.5668 31.7742 14.8958 32.274 13.9622 31.6326C13.9622 31.6326 13.46 31.3348 13.2411 31.0465C12.6824 30.3108 12.4135 29.0965 13.2469 28.6893C13.7807 28.4284 14.1777 29.0689 14.7533 28.9186C15.1807 28.807 15.2762 28.39 15.7134 28.3245Z" fill="#FDC82D"/>
<path d="M48.8193 28.6191C48.8463 28.6436 48.861 28.6578 48.8867 28.6838C49.8653 29.6729 49.1429 32.6885 46.9339 31.6561C45.8988 31.106 45.5678 29.7253 46.2906 28.868C46.9267 28.1134 48.088 27.9545 48.8193 28.6191Z" fill="#FDC82D"/>
</svg>
