<svg width="82" height="68" viewBox="0 0 82 68" fill="none" xmlns="http://www.w3.org/2000/svg">
<g clip-path="url(#clip0_111_51)">
<path d="M7.07696 34.0209C7.07178 32.6272 7.3162 31.0548 7.70729 29.7165C8.62422 26.5789 9.92517 20.9346 13.2301 19.6702C16.7593 18.3199 21.8152 25.159 22.6859 27.9175C27.0858 27.7353 29.4975 27.9743 33.7724 28.9319C35.3987 26.5975 41.6568 19.9171 45.0892 22.5808C47.7649 24.6573 48.0395 31.0821 48.3587 34.2135C48.4 34.6181 48.4736 36.1044 48.5706 36.6264C49.0234 37.082 49.7344 38.0234 50.1888 38.5341C51.3242 39.8108 53.1675 43.646 53.4194 45.2573C53.5698 45.9725 53.7886 46.971 53.7901 47.6878C53.7967 48.263 53.8222 48.7065 53.8737 49.2795C53.2861 64.7997 35.9022 68.5767 23.369 67.1697C16.0466 66.3478 8.0174 63.9354 3.33855 57.8353C-2.5324 50.1808 -0.269725 39.7961 7.07696 34.0209Z" fill="#3A3A3A"/>
<path d="M14.1454 23.6042C16.114 24.7606 17.0367 26.1264 18.3595 27.9237C19.3112 29.217 19.582 29.9705 20.1337 31.4467C20.2625 31.7914 20.884 32.0243 21.2688 32.0301C22.5979 32.0502 23.9558 31.7656 25.3005 31.8788C28.2623 31.9295 31.1697 32.3338 34.0473 33.0264C35.513 33.3792 36.3206 32.6219 36.5773 31.2448C37.1411 30.7335 37.8148 29.8758 38.3813 29.3071C39.8133 27.8694 41.2124 26.7616 43.0751 25.9746C43.931 28.6213 44.4182 32.4965 44.7323 35.3031C44.8084 35.9839 44.3162 37.241 44.5846 37.8577C44.9614 38.7235 46.1446 39.7718 46.7477 40.5516C47.8462 41.9721 49.037 44.1601 49.4686 45.8672C49.5357 46.1843 49.611 46.5145 49.6602 46.8335C49.9148 48.057 49.8747 49.4064 49.7415 50.6468C49.7737 51.9646 48.8837 54.0044 48.1874 55.1287C43.0382 63.4427 30.384 63.7763 21.7887 62.5072C17.9056 62.0557 14.6257 61.1744 11.1847 59.2622C2.38419 54.3918 1.71382 44.0674 9.01578 37.4184C10.6663 35.8898 11.0596 36.1418 11.0384 33.852C11.0113 30.9247 12.7397 26.0234 14.1454 23.6042Z" fill="#FEFEFE"/>
<path d="M25.7377 46.8947C26.6185 46.8574 27.9531 46.8383 28.6759 47.3791C29.8152 48.2316 28.6535 49.5775 28.1033 50.3275C27.949 51.0918 29.3606 52.0486 28.8497 52.8041C28.174 53.803 27.4758 53.4084 26.7421 52.9087C26.714 52.8661 26.399 52.422 26.3623 52.4645C25.864 53.0423 24.8097 53.7883 24.0822 53.0546C23.5492 52.0455 24.695 50.9258 25.3422 50.2937C24.5637 49.8013 23.7905 48.7842 24.2854 47.8206C24.5989 47.2102 25.1331 47.0882 25.7377 46.8947Z" fill="#3A3A3A"/>
<path d="M34.2746 42.6051C36.6262 42.2777 37.3482 45.1547 36.3358 46.8215C35.9725 47.4195 35.5739 47.48 34.9429 47.6141C32.6078 47.6729 31.9746 45.6946 32.7679 43.7075C33.0437 43.0167 33.6202 42.8143 34.2746 42.6051Z" fill="#3A3A3A"/>
<path d="M18.4277 41.715C18.726 41.6777 18.9896 41.6458 19.2817 41.735C19.9373 41.9391 20.4859 42.3946 20.8087 43.0023C21.1494 43.6173 21.2236 44.3457 21.0135 45.017C20.7732 45.8049 20.2529 46.3926 19.5368 46.7786C16.3627 47.2749 15.9326 43.1105 18.4277 41.715Z" fill="#3A3A3A"/>
<path d="M11.7585 47.7172C12.8562 47.6409 15.2923 48.1514 15.995 49.0967C16.4463 49.7039 15.7905 50.5034 15.2647 50.8056C14.3245 50.6692 13.3557 50.3538 12.4852 50.147C11.2966 49.8647 10.2942 49.3949 11.2181 48.0805C11.3309 47.92 11.591 47.7987 11.7585 47.7172Z" fill="#3A3A3A"/>
<path d="M39.9682 49.0686C40.6642 49.0304 41.3554 48.9248 41.8187 49.5638C42.3287 50.2674 41.7495 50.9261 41.216 51.3202C40.2675 51.3768 39.505 51.4854 38.5136 51.5052C38.3386 51.538 38.1628 51.5677 37.9866 51.5941C36.9682 51.7441 36.1183 50.9206 36.8603 50.0094C37.5098 49.2121 39.0137 49.1566 39.9682 49.0686Z" fill="#3A3A3A"/>
<path d="M37.1053 52.745C37.3969 52.7247 37.6897 52.7446 37.976 52.8039C38.734 52.9611 39.4391 53.2484 40.1696 53.4749C41.3904 53.8535 42.4252 54.983 40.9066 55.8899C40.8145 55.8943 40.7221 55.896 40.6297 55.8952C40.0286 55.888 39.5016 55.6288 38.9334 55.4844C37.651 55.1586 35.1393 54.3816 37.1053 52.745Z" fill="#3A3A3A"/>
<path d="M14.9209 51.4432C15.1009 51.4187 15.4887 51.4192 15.6305 51.5472C17.7855 53.4906 13.3989 54.0243 12.1964 54.321C11.6763 54.3837 11.0484 54.0746 11.0115 53.4892C10.9711 52.844 11.2117 52.6083 11.606 52.1574C12.5086 52.0177 13.9711 51.6453 14.9209 51.4432Z" fill="#3A3A3A"/>
<path d="M59.5852 1.64516C59.1445 0.894739 58.6606 0.00139869 57.3986 1.50309e-06C56.274 -0.00124334 55.418 0.770779 55.193 2.13505C54.5306 6.15137 52.3323 10.1589 48.7195 12.2055C48.1527 12.5275 47.5587 13.0104 46.9221 13.2383C44.7104 14.0242 43.6922 14.3007 43.7346 15.9333C43.7784 17.6192 45.1426 17.4247 47.2721 18.394C50.7396 19.9727 53.1635 22.9187 54.4201 26.4869C54.9 27.8161 54.9682 29.1461 55.4219 30.4418C55.5776 30.8867 56.7488 31.2909 57.2022 31.4259L58.116 31.1675C59.8014 30.3129 59.2013 29.6709 59.6411 28.1028C59.8228 27.4568 60.2059 26.7173 60.446 26.0826C61.7565 22.7275 63.843 20.548 67.0371 18.9326C68.5547 18.1651 69.9096 18.0891 71.1206 17.2676C72.4097 13.8492 70.1258 14.1382 67.8542 13.1174C64.846 11.7937 63.5344 10.4207 61.7719 7.12903C60.7426 5.20684 60.2757 2.8211 59.5852 1.64516Z" fill="#3A3A3A"/>
<path d="M57.3184 8.16357C57.4683 8.23235 58.5945 10.2483 58.7902 10.583C59.8704 12.4307 62.4742 15.0232 64.4513 15.8856C61.9916 16.9581 59.5777 19.2317 58.3207 21.6084C58.0749 22.0731 57.7213 22.5616 57.4208 22.9911L57.3595 23.0974C57.5644 23.1896 54.4165 17.4315 50.5026 15.7571C50.7248 15.6617 50.9435 15.5586 51.1586 15.448C53.7705 14.0929 56.4212 10.9982 57.3184 8.16357Z" fill="#FEFEFE"/>
<path d="M68.6841 48.9846C71.5246 48.7507 74.0107 50.8843 74.2203 53.7358C74.43 56.5872 72.2833 59.0636 69.4396 59.2508C66.6278 59.4359 64.1935 57.3122 63.9864 54.4934C63.7784 51.6746 65.8756 49.2155 68.6841 48.9846Z" fill="#3A3A3A"/>
<path d="M68.9537 52.428C69.2678 52.3253 70.0571 52.8084 70.362 52.9654C70.6169 53.3603 70.6827 53.576 70.8397 54.0097C70.7558 54.3789 70.6654 54.8529 70.4229 55.1364L70.3933 55.1699C70.141 55.4652 69.6773 55.6276 69.313 55.787C68.1562 55.7575 66.9321 55.0935 67.3999 53.7379C67.6663 52.968 68.2739 52.7373 68.9537 52.428Z" fill="#FEFEFE"/>
<path d="M76.431 3.01465C78.4707 2.97111 78.0506 4.88132 78.058 6.3749C79.0634 6.40022 82.7179 6.10629 81.1484 8.81575C80.8804 9.27793 78.6919 9.22779 78.0538 9.25928C78.0012 10.8106 78.5397 11.8917 76.9103 12.605C74.961 12.8315 75.2644 10.5086 75.2595 9.25937C74.3509 9.1999 72.5406 9.42019 72.0399 8.5163C71.4604 7.4689 72.1263 7.00325 72.9328 6.50356C73.7048 6.49795 74.4702 6.43561 75.2389 6.3768C75.3943 5.00858 74.8484 3.54157 76.431 3.01465Z" fill="#3A3A3A"/>
<path d="M33.2077 13.1618C34.3557 13.1369 34.1192 14.2273 34.1234 15.0799C34.6893 15.0944 36.7458 14.9266 35.8626 16.4733C35.7118 16.7372 34.4801 16.7085 34.1211 16.7265C34.0914 17.6121 34.3945 18.2292 33.4774 18.6365C32.3805 18.7657 32.5512 17.4397 32.5484 16.7265C32.0372 16.6926 31.0183 16.8183 30.7365 16.3024C30.4104 15.7044 30.7851 15.4387 31.239 15.1534C31.6735 15.1502 32.1042 15.1146 32.5368 15.081C32.6243 14.3 32.3171 13.4625 33.2077 13.1618Z" fill="#3A3A3A"/>
</g>
<defs>
<clipPath id="clip0_111_51">
<rect width="82" height="68" fill="white"/>
</clipPath>
</defs>
</svg>
