<svg width="80" height="80" viewBox="0 0 80 80" fill="none" xmlns="http://www.w3.org/2000/svg">
<circle cx="40" cy="40" r="37.75" stroke="#68B984" stroke-width="4.5"/>
<path d="M36.7144 56C35.7381 56 34.9013 55.5649 34.204 54.6948L24.7438 42.6453C24.4804 42.319 24.2867 42.0083 24.1627 41.713C24.0542 41.4023 24 41.0993 24 40.8041C24 40.0738 24.2324 39.4834 24.6973 39.0328C25.1622 38.5822 25.751 38.3569 26.4638 38.3569C27.3006 38.3569 28.0057 38.7298 28.579 39.4756L36.6214 50.1034L52.1018 25.3285C52.4272 24.8313 52.7526 24.4894 53.078 24.303C53.4034 24.101 53.814 24 54.3099 24C55.0227 24 55.6038 24.2253 56.0532 24.6759C56.5026 25.1109 56.7273 25.6781 56.7273 26.3773C56.7273 26.657 56.6808 26.9444 56.5878 27.2396C56.4948 27.5348 56.3321 27.8534 56.0997 28.1952L39.2014 54.6715C38.6126 55.5572 37.7836 56 36.7144 56Z" fill="#68B984"/>
</svg>
