<svg width="39" height="43" viewBox="0 0 39 43" fill="none" xmlns="http://www.w3.org/2000/svg">
<path d="M5.19418 2.1193L10.3213 7.85042L8.81284 9.30299L3.68573 3.57186L5.19418 2.1193ZM2.17727 5.02443L7.30438 10.7584L8.81284 9.30581L3.68573 3.57186L2.17727 5.02443Z" fill="#FFF5C7"/>
<path d="M19.1188 27.1011L16.4885 24.1621L13.8583 21.2231L11.2307 18.284L8.60046 15.345L5.79865 12.2081L7.30438 10.7556L8.81284 9.30299L10.3213 7.85042L11.827 6.39786L28.5589 25.106L22.5278 30.9162L19.1188 27.1011Z" fill="#FFF5C7"/>
<path d="M28.5589 25.106C28.5589 25.106 29.4438 26.4653 28.2131 28.5707L25.9041 30.7947L25.8823 30.7721C23.7667 31.8912 22.5278 30.9162 22.5278 30.9162L28.5589 25.106ZM25.9041 30.7947L25.8823 30.8145L29.354 34.2227L31.2273 32.4197L28.2131 28.5707L25.9041 30.7947Z" fill="#FFF5C7"/>
<path d="M28.2131 28.5707L31.23 32.4197L29.3567 34.2226L25.8823 30.8145L25.9041 30.7947L28.2131 28.5707Z" fill="#FFF5C7"/>
<path d="M5.19418 2.1193L3.68573 3.57186L2.17727 5.02443L7.30438 10.7556L8.81284 9.30299L10.3213 7.85042L5.19418 2.1193Z" fill="#FFF5C7"/>
<path d="M10.3213 7.85042L10.6681 8.21059L10.6684 8.21027L10.3213 7.85042ZM8.81284 9.30299L9.15966 9.66315L9.15966 9.66315L8.81284 9.30299ZM2.17727 5.02443L1.83045 4.66426L1.8303 4.66441L2.17727 5.02443ZM7.30438 10.7584L6.93166 11.0917L7.27748 11.4784L7.6512 11.1185L7.30438 10.7584ZM8.81284 9.30581L9.15966 9.66598L9.50675 9.33174L9.18556 8.97254L8.81284 9.30581ZM13.8583 21.2231L13.4855 21.5563L13.4857 21.5565L13.8583 21.2231ZM8.60046 15.345L8.22755 15.6781L8.22787 15.6784L8.60046 15.345ZM11.827 6.39786L11.4804 6.03751L11.4799 6.03801L11.827 6.39786ZM28.5589 25.106L28.9779 24.8332L28.9571 24.8012L28.9316 24.7727L28.5589 25.106ZM22.5278 30.9162L22.155 31.2494L22.1842 31.2821L22.2186 31.3092L22.5278 30.9162ZM25.9041 30.7947L26.2403 31.1648L26.2457 31.1599L26.251 31.1548L25.9041 30.7947ZM25.8823 30.7721L26.2424 30.4252L25.9813 30.1541L25.6486 30.3301L25.8823 30.7721ZM25.8823 30.8145L25.5462 30.4444L25.1542 30.8004L25.5321 31.1713L25.8823 30.8145ZM29.354 34.2227L29.0037 34.5795L29.3505 34.9199L29.7007 34.5829L29.354 34.2227ZM31.2273 32.4197L31.574 32.7799L31.8993 32.4668L31.6209 32.1114L31.2273 32.4197ZM7.21873 0.859715C7.4174 0.667917 7.42297 0.351383 7.23117 0.152718C7.03937 -0.0459474 6.72284 -0.051514 6.52417 0.140285L6.87145 0.5L7.21873 0.859715ZM0.153032 6.28088C-0.0458007 6.4725 -0.0516434 6.78903 0.139982 6.98787C0.331607 7.1867 0.648136 7.19254 0.846968 7.00092L0.5 6.6409L0.153032 6.28088ZM13.9217 5.07674C14.1207 4.88531 14.1269 4.56879 13.9354 4.36977C13.744 4.17075 13.4275 4.16461 13.2285 4.35604L13.5751 4.71639L13.9217 5.07674ZM3.70366 13.5324C3.50481 13.724 3.49893 14.0405 3.69053 14.2393C3.88213 14.4382 4.19866 14.4441 4.39751 14.2525L4.05059 13.8924L3.70366 13.5324ZM31.23 32.4197L31.5767 32.7799C31.7616 32.602 31.7818 32.3131 31.6235 32.1112L31.23 32.4197ZM29.3567 34.2226L29.0066 34.5796C29.1997 34.769 29.5085 34.7705 29.7034 34.5829L29.3567 34.2226ZM31.2351 33.6265C31.051 33.4207 30.735 33.403 30.5291 33.5871C30.3233 33.7712 30.3056 34.0873 30.4897 34.2931L30.8624 33.9598L31.2351 33.6265ZM38.1273 42.8333C38.3114 43.0391 38.6275 43.0568 38.8333 42.8727C39.0391 42.6886 39.0568 42.3725 38.8727 42.1667L38.5 42.5L38.1273 42.8333ZM11.9642 12.8C12.1631 12.6085 12.1691 12.2919 11.9775 12.093C11.786 11.8941 11.4695 11.8881 11.2705 12.0797L11.6174 12.4398L11.9642 12.8ZM14.5919 15.7389C14.7907 15.5473 14.7965 15.2307 14.6049 15.0319C14.4133 14.8331 14.0968 14.8272 13.8979 15.0189L14.2449 15.3789L14.5919 15.7389ZM17.222 18.6781C17.4209 18.4865 17.4269 18.17 17.2353 17.9711C17.0438 17.7722 16.7273 17.7662 16.5284 17.9578L16.8752 18.3179L17.222 18.6781ZM19.8497 21.617C20.0485 21.4253 20.0544 21.1088 19.8627 20.91C19.6711 20.7112 19.3546 20.7053 19.1557 20.897L19.5027 21.257L19.8497 21.617ZM22.48 24.556C22.6788 24.3644 22.6846 24.0479 22.493 23.849C22.3014 23.6502 21.9848 23.6444 21.786 23.836L22.133 24.196L22.48 24.556ZM5.19418 2.1193L4.82154 2.45267L9.94865 8.1838L10.3213 7.85042L10.6939 7.51705L5.56683 1.78593L5.19418 2.1193ZM10.3213 7.85042L9.97448 7.49026L8.46602 8.94283L8.81284 9.30299L9.15966 9.66315L10.6681 8.21059L10.3213 7.85042ZM8.81284 9.30299L9.18548 8.96962L4.05837 3.23849L3.68573 3.57186L3.31308 3.90523L8.44019 9.63636L8.81284 9.30299ZM3.68573 3.57186L4.03254 3.93202L5.541 2.47946L5.19418 2.1193L4.84736 1.75914L3.33891 3.2117L3.68573 3.57186ZM2.17727 5.02443L1.80454 5.3577L6.93166 11.0917L7.30438 10.7584L7.67711 10.4251L2.55 4.69115L2.17727 5.02443ZM7.30438 10.7584L7.6512 11.1185L9.15966 9.66598L8.81284 9.30581L8.46602 8.94565L6.95757 10.3982L7.30438 10.7584ZM8.81284 9.30581L9.18556 8.97254L4.05845 3.23858L3.68573 3.57186L3.313 3.90514L8.44011 9.63909L8.81284 9.30581ZM3.68573 3.57186L3.33891 3.2117L1.83045 4.66426L2.17727 5.02443L2.52409 5.38459L4.03254 3.93202L3.68573 3.57186ZM19.1188 27.1011L19.4914 26.7677L16.8611 23.8287L16.4885 24.1621L16.1159 24.4955L18.7462 27.4346L19.1188 27.1011ZM16.4885 24.1621L16.8611 23.8287L14.2309 20.8896L13.8583 21.2231L13.4857 21.5565L16.116 24.4955L16.4885 24.1621ZM13.8583 21.2231L14.231 20.8898L11.6035 17.9508L11.2307 18.284L10.858 18.6173L13.4855 21.5563L13.8583 21.2231ZM11.2307 18.284L11.6033 17.9506L8.97304 15.0115L8.60046 15.345L8.22787 15.6784L10.8581 18.6175L11.2307 18.284ZM8.60046 15.345L8.97336 15.0119L6.17156 11.875L5.79865 12.2081L5.42574 12.5412L8.22755 15.6781L8.60046 15.345ZM5.79865 12.2081L6.14579 12.568L7.65153 11.1154L7.30438 10.7556L6.95724 10.3957L5.45151 11.8483L5.79865 12.2081ZM7.30438 10.7556L7.6512 11.1157L9.15966 9.66315L8.81284 9.30299L8.46602 8.94283L6.95757 10.3954L7.30438 10.7556ZM10.3213 7.85042L10.6684 8.21027L12.1742 6.75771L11.827 6.39786L11.4799 6.03801L9.97415 7.49058L10.3213 7.85042ZM11.827 6.39786L11.4543 6.73118L28.1862 25.4393L28.5589 25.106L28.9316 24.7727L12.1997 6.06454L11.827 6.39786ZM28.5589 25.106L28.212 24.7459L22.1809 30.5561L22.5278 30.9162L22.8747 31.2763L28.9058 25.4661L28.5589 25.106ZM22.5278 30.9162L22.9006 30.5831L19.4916 26.768L19.1188 27.1011L18.746 27.4343L22.155 31.2494L22.5278 30.9162ZM28.5589 25.106C28.1399 25.3788 28.1397 25.3785 28.1395 25.3782C28.1395 25.3782 28.1393 25.3779 28.1392 25.3777C28.139 25.3774 28.1388 25.3771 28.1386 25.3768C28.1382 25.3762 28.1379 25.3757 28.1376 25.3753C28.1371 25.3745 28.1368 25.3739 28.1366 25.3737C28.1363 25.3732 28.1368 25.374 28.138 25.3759C28.1403 25.3799 28.1453 25.3886 28.1524 25.4019C28.1665 25.4287 28.1886 25.4737 28.2133 25.536C28.2628 25.6604 28.3225 25.8527 28.3506 26.1043C28.406 26.5998 28.3428 27.3581 27.7814 28.3183L28.2131 28.5707L28.6448 28.823C29.3142 27.6779 29.4238 26.7038 29.3444 25.9933C29.3052 25.6419 29.2206 25.3628 29.1426 25.1666C29.1036 25.0685 29.0662 24.9909 29.0367 24.9351C29.0219 24.9071 29.0091 24.8846 28.9991 24.8676C28.9941 24.8591 28.9897 24.8519 28.9862 24.8462C28.9844 24.8433 28.9828 24.8408 28.9814 24.8386C28.9807 24.8376 28.9801 24.8366 28.9795 24.8356C28.9792 24.8352 28.9789 24.8348 28.9787 24.8344C28.9785 24.8341 28.9784 24.8339 28.9783 24.8338C28.9781 24.8335 28.9779 24.8332 28.5589 25.106ZM28.2131 28.5707L27.8662 28.2105L25.5573 30.4346L25.9041 30.7947L26.251 31.1548L28.56 28.9308L28.2131 28.5707ZM25.9041 30.7947L26.2642 30.4478L26.2424 30.4252L25.8823 30.7721L25.5222 31.119L25.544 31.1416L25.9041 30.7947ZM25.8823 30.7721L25.6486 30.3301C24.687 30.8388 23.9617 30.8552 23.5007 30.7718C23.2658 30.7293 23.0894 30.659 22.9764 30.6031C22.9199 30.5751 22.8795 30.5508 22.8559 30.5356C22.8441 30.528 22.8365 30.5227 22.8333 30.5204C22.8317 30.5192 22.8312 30.5189 22.8318 30.5193C22.8322 30.5195 22.8327 30.52 22.8336 30.5206C22.834 30.521 22.8345 30.5214 22.8351 30.5218C22.8354 30.522 22.8357 30.5223 22.836 30.5225C22.8362 30.5226 22.8364 30.5228 22.8365 30.5229C22.8368 30.5231 22.837 30.5233 22.5278 30.9162C22.2186 31.3092 22.2189 31.3094 22.2191 31.3096C22.2192 31.3097 22.2195 31.3099 22.2197 31.31C22.2201 31.3103 22.2205 31.3107 22.221 31.311C22.2218 31.3117 22.2228 31.3124 22.2238 31.3132C22.2259 31.3148 22.2283 31.3166 22.231 31.3187C22.2364 31.3227 22.2431 31.3277 22.2511 31.3334C22.2671 31.3449 22.2883 31.3594 22.3145 31.3763C22.3669 31.4101 22.4398 31.4532 22.5325 31.4991C22.7179 31.591 22.9835 31.6945 23.3227 31.7558C24.01 31.8802 24.9621 31.8245 26.1161 31.2141L25.8823 30.7721ZM25.9041 30.7947L25.568 30.4246L25.5462 30.4444L25.8823 30.8145L26.2185 31.1846L26.2403 31.1648L25.9041 30.7947ZM25.8823 30.8145L25.5321 31.1713L29.0037 34.5795L29.354 34.2227L29.7042 33.8659L26.2326 30.4577L25.8823 30.8145ZM29.354 34.2227L29.7007 34.5829L31.574 32.7799L31.2273 32.4197L30.8806 32.0594L29.0072 33.8624L29.354 34.2227ZM31.2273 32.4197L31.6209 32.1114L28.6068 28.2624L28.2131 28.5707L27.8194 28.8789L30.8336 32.7279L31.2273 32.4197ZM5.19418 2.1193L5.54146 2.47901L7.21873 0.859715L6.87145 0.5L6.52417 0.140285L4.8469 1.75958L5.19418 2.1193ZM0.5 6.6409L0.846968 7.00092L2.52424 5.38444L2.17727 5.02443L1.8303 4.66441L0.153032 6.28088L0.5 6.6409ZM11.827 6.39786L12.1736 6.75821L13.9217 5.07674L13.5751 4.71639L13.2285 4.35604L11.4804 6.03751L11.827 6.39786ZM4.05059 13.8924L4.39751 14.2525L6.14558 12.5682L5.79865 12.2081L5.45173 11.8481L3.70366 13.5324L4.05059 13.8924ZM28.2131 28.5707L27.8196 28.8791L30.8365 32.7281L31.23 32.4197L31.6235 32.1112L28.6066 28.2622L28.2131 28.5707ZM31.23 32.4197L30.8833 32.0594L29.01 33.8624L29.3567 34.2226L29.7034 34.5829L31.5767 32.7799L31.23 32.4197ZM29.3567 34.2226L29.7068 33.8657L26.2325 30.4576L25.8823 30.8145L25.5322 31.1714L29.0066 34.5796L29.3567 34.2226ZM30.8624 33.9598L30.4897 34.2931L38.1273 42.8333L38.5 42.5L38.8727 42.1667L31.2351 33.6265L30.8624 33.9598ZM22.5278 30.9162C22.219 31.3095 22.2193 31.3097 22.2195 31.3099C22.2196 31.31 22.2199 31.3102 22.2201 31.3104C22.2205 31.3107 22.2209 31.311 22.2214 31.3113C22.2222 31.312 22.2232 31.3127 22.2242 31.3135C22.2263 31.3151 22.2287 31.3169 22.2314 31.319C22.2368 31.323 22.2435 31.328 22.2515 31.3337C22.2675 31.3451 22.2887 31.3597 22.3149 31.3766C22.3674 31.4103 22.4403 31.4533 22.5331 31.4992C22.7187 31.591 22.9844 31.6945 23.3238 31.7559C24.0113 31.8801 24.9635 31.8246 26.1164 31.214L25.8823 30.7721L25.6483 30.3303C24.6883 30.8387 23.9631 30.8552 23.5017 30.7718C23.2665 30.7293 23.0898 30.659 22.9765 30.6029C22.9199 30.5749 22.8793 30.5506 22.8556 30.5353C22.8438 30.5277 22.8362 30.5224 22.833 30.5201C22.8314 30.519 22.8309 30.5186 22.8315 30.519C22.8318 30.5192 22.8323 30.5197 22.8332 30.5203C22.8336 30.5207 22.8341 30.521 22.8347 30.5215C22.835 30.5217 22.8353 30.5219 22.8356 30.5222C22.8357 30.5223 22.836 30.5225 22.8361 30.5226C22.8363 30.5228 22.8366 30.523 22.5278 30.9162ZM2.17727 5.02443L1.80463 5.3578L6.93174 11.0889L7.30438 10.7556L7.67703 10.4222L2.54992 4.69105L2.17727 5.02443ZM8.60046 15.345L8.94728 15.7051L11.9642 12.8L11.6174 12.4398L11.2705 12.0797L8.25364 14.9848L8.60046 15.345ZM11.2307 18.284L11.5777 18.644L14.5919 15.7389L14.2449 15.3789L13.8979 15.0189L10.8837 17.924L11.2307 18.284ZM13.8583 21.2231L14.2051 21.5832L17.222 18.6781L16.8752 18.3179L16.5284 17.9578L13.5114 20.8629L13.8583 21.2231ZM16.4885 24.1621L16.8355 24.5221L19.8497 21.617L19.5027 21.257L19.1557 20.897L16.1416 23.8021L16.4885 24.1621ZM19.1188 27.1011L19.4658 27.4611L22.48 24.556L22.133 24.196L21.786 23.836L18.7718 26.7411L19.1188 27.1011Z" fill="#8A6400"/>
</svg>
