<svg width="42" height="39" viewBox="0 0 42 39" fill="none" xmlns="http://www.w3.org/2000/svg">
<path d="M11.3346 0.5H30.5884C32.6728 0.5 34.2037 0.500374 35.4071 0.595048C36.6049 0.689274 37.4285 0.874165 38.1096 1.21625C39.3629 1.8457 40.3593 2.84597 40.9437 4.06147C41.2613 4.72205 41.402 5.50525 41.4208 6.63238C41.4398 7.7649 41.3361 9.19734 41.1944 11.1476L39.8824 29.2078C39.757 30.9328 39.6648 32.198 39.5071 33.1957C39.3503 34.1874 39.1341 34.875 38.783 35.4514C38.1375 36.5117 37.1649 37.3638 35.9932 37.8958C35.356 38.185 34.6099 38.3406 33.5442 38.4199C32.4722 38.4996 31.12 38.5 29.2764 38.5H12.6466C10.8031 38.5 9.45085 38.4996 8.37882 38.4199C7.31316 38.3406 6.56705 38.185 5.9299 37.8958C4.75817 37.3638 3.78558 36.5117 3.14003 35.4514C2.789 34.875 2.57275 34.1874 2.41598 33.1957C2.25826 32.198 2.16594 30.9328 2.04062 29.2078L0.728658 11.1476C0.586976 9.19734 0.48332 7.7649 0.502228 6.63238C0.521049 5.50525 0.661738 4.72205 0.979347 4.06147C1.56376 2.84597 2.56015 1.8457 3.81345 1.21625C4.49459 0.874165 5.31819 0.689274 6.51593 0.595048C7.71941 0.500374 9.25026 0.5 11.3346 0.5Z" fill="#FFF5C7" stroke="#8A6400"/>
<path d="M11.1909 29.3242L12.3592 30.9619C12.7251 31.4749 12.9081 31.7313 13.1503 31.917C13.3647 32.0814 13.6119 32.2048 13.8778 32.2801C14.178 32.365 14.509 32.365 15.1709 32.365H26.8392C27.501 32.365 27.832 32.365 28.1323 32.2801C28.3981 32.2048 28.6453 32.0814 28.8598 31.917C29.1019 31.7313 29.2849 31.4749 29.6509 30.9619L30.8192 29.3242C31.1775 28.8219 31.3566 28.5708 31.4362 28.183C31.4918 27.9119 31.4512 27.4191 31.3519 27.1591C31.2099 26.7871 31.0618 26.6359 30.7658 26.3335C29.0574 24.5883 25.779 22.5586 21.005 22.5586C16.231 22.5586 12.9527 24.5883 11.2442 26.3335C10.9482 26.6359 10.8001 26.7871 10.6581 27.1591C10.5589 27.4191 10.5183 27.9119 10.5739 28.183C10.6534 28.5708 10.8326 28.8219 11.1909 29.3242Z" fill="white" stroke="#8A6400"/>
<path d="M21.6923 32.6551L21.2845 29.138C21.1874 28.2909 21.1172 27.6795 21.0514 27.2594C21.0184 27.0486 20.99 26.9093 20.9657 26.8222C20.9643 26.8173 20.9628 26.8129 20.9615 26.8086C20.958 26.8082 20.9545 26.8082 20.9509 26.8086C20.9497 26.8129 20.9482 26.8173 20.9469 26.8222C20.9226 26.9093 20.8941 27.0486 20.8611 27.2594C20.7953 27.6795 20.7251 28.2909 20.6281 29.138L20.2308 32.6551" stroke="#8A6400"/>
<path d="M21.2663 22.8891C21.2663 22.6634 21.0713 22.4805 20.8306 22.4805C20.59 22.4805 20.395 22.6634 20.395 22.8891V24.6052C20.395 24.8309 20.59 25.0138 20.8306 25.0138C21.0713 25.0138 21.2663 24.8309 21.2663 24.6052V22.8891Z" fill="#8A6400"/>
<path d="M25.7242 23.6283C25.8065 23.4162 25.69 23.1818 25.4638 23.1046C25.2377 23.0274 24.9877 23.1367 24.9054 23.3488L24.2796 24.9614C24.1973 25.1735 24.3139 25.408 24.54 25.4851C24.7661 25.5623 25.0161 25.453 25.0984 25.2409L25.7242 23.6283Z" fill="#8A6400"/>
<path d="M16.8318 23.3545C16.7495 23.1424 16.4995 23.0331 16.2734 23.1102C16.0473 23.1874 15.9307 23.4219 16.013 23.634L16.6389 25.2466C16.7212 25.4586 16.9712 25.568 17.1973 25.4908C17.4234 25.4136 17.54 25.1791 17.4577 24.9671L16.8318 23.3545Z" fill="#8A6400"/>
<path d="M29.6638 25.9399C29.8185 25.767 29.7944 25.5093 29.6101 25.3642C29.4258 25.2192 29.151 25.2417 28.9963 25.4146L27.8201 26.7292C27.6655 26.9021 27.6895 27.1598 27.8738 27.3049C28.0581 27.4499 28.3329 27.4274 28.4876 27.2545L29.6638 25.9399Z" fill="#8A6400"/>
<path d="M12.6289 25.4127C12.4742 25.2398 12.1994 25.2173 12.0151 25.3624C11.8308 25.5074 11.8067 25.7651 11.9614 25.938L13.1376 27.2526C13.2923 27.4255 13.5671 27.4481 13.7514 27.303C13.9357 27.1579 13.9597 26.9002 13.8051 26.7273L12.6289 25.4127Z" fill="#8A6400"/>
</svg>
